<svg width="154" height="154" viewBox="0 0 154 154" fill="none" xmlns="http://www.w3.org/2000/svg">
<g id="work-video-conference-01-7">
<g id="Group">
<g id="Group_2">
<path id="Vector" d="M73.1212 13.9034C67.4141 14.0626 62.9133 18.4188 63.0725 23.6322C63.2469 29.7012 69.4905 33.8692 75.7493 32.5039L75.4149 28.5686C75.342 27.9163 75.3984 27.2561 75.5809 26.6257C75.7633 25.9953 76.0683 25.407 76.4783 24.8945C76.8882 24.3821 77.3952 23.9554 77.9702 23.639C78.5452 23.3226 79.1769 23.1227 79.8292 23.0506L83.7064 22.7169C83.3872 17.6642 78.7111 13.7435 73.1212 13.9034Z" fill="#FECFC4"/>
<path id="Vector_2" fill-rule="evenodd" clip-rule="evenodd" d="M67.7195 115.823L114.243 111.903C115.514 111.794 116.69 111.186 117.512 110.211C118.334 109.236 118.736 107.975 118.628 106.704L115.927 74.9763C115.819 73.7057 115.211 72.53 114.236 71.7077C113.261 70.8854 112 70.4838 110.729 70.591L85.8715 72.6827C85.4322 73.3523 85.1459 73.7013 84.4862 74.2202C83.4183 75.0367 82.093 75.4432 80.7509 75.3658C79.4088 75.2884 78.139 74.7323 77.172 73.7985L76.8322 73.4618L69.0779 74.1138C71.6494 83.2434 71.9203 89.5772 72.1086 98.6226C72.2652 101.281 71.9012 103.945 71.0372 106.464L67.7195 115.823ZM94.8143 95.1748L99.505 97.3675L98.6623 87.406L94.4079 90.3678C94.2589 89.4293 93.7594 88.5823 93.0103 87.9976C92.2612 87.413 91.3182 87.1343 90.3716 87.2177L81.2956 88.0022C80.8017 88.0424 80.3207 88.1803 79.8806 88.408C79.4404 88.6357 79.0499 88.9486 78.7317 89.3285C78.4128 89.7077 78.1723 90.1464 78.0243 90.6192C77.8762 91.092 77.8235 91.5895 77.8692 92.0829L78.232 96.2922C78.2729 96.7859 78.4111 97.2666 78.6388 97.7066C78.8665 98.1466 79.179 98.5371 79.5584 98.8557C79.9378 99.1742 80.3765 99.4145 80.8492 99.5626C81.322 99.7107 81.8194 99.7637 82.3127 99.7185L91.3734 98.9639C92.3193 98.8827 93.1996 98.4469 93.8378 97.7439C94.4759 97.0409 94.8247 96.1227 94.8143 95.1733V95.1748Z" fill="#FECFC4"/>
<path id="Vector_3" d="M128.909 75.1072C128.948 75.4539 128.918 75.8049 128.821 76.14C128.724 76.4752 128.562 76.7879 128.344 77.0603C128.125 77.3325 127.855 77.5586 127.549 77.7257C127.243 77.8928 126.906 77.9975 126.559 78.0338C126.036 78.0885 125.509 77.9863 125.045 77.7401C124.581 77.4939 124.2 77.115 123.952 76.6516C123.788 76.3438 123.686 76.0064 123.652 75.659L123.232 71.6793C123.165 70.9856 123.375 70.2938 123.816 69.7542C124.257 69.2146 124.893 68.8709 125.586 68.7979C126.279 68.7252 126.973 68.9292 127.517 69.3655C128.06 69.8018 128.409 70.4351 128.488 71.1275L128.909 75.1072Z" fill="#FECFC4"/>
</g>
<g id="Group_3">
<path id="Vector_4" d="M99.7805 27.1458C100.006 27.6739 100.176 28.2242 100.289 28.7867C100.724 27.8721 100.981 26.8826 101.046 25.8716C100.642 26.3141 100.22 26.7393 99.7805 27.1458Z" fill="#6153BD"/>
<path id="Vector_5" d="M60.2988 47.1118C60.4236 47.7983 60.6585 48.4603 60.9953 49.0718C62.1142 49.0718 63.3486 48.9272 63.6532 48.4772C63.6969 48.4006 63.7405 48.3172 63.7834 48.23C63.3624 49.0596 61.8394 48.2177 60.2988 47.1118Z" fill="#6153BD"/>
<path id="Vector_6" d="M21.8635 79.4052C19.1619 75.5281 1.98495 89.6858 4.45236 93.2576L4.87329 93.6349C8.44659 95.6247 23.9681 82.455 21.8635 79.4052Z" fill="#6153BD"/>
<path id="Vector_7" d="M51.2528 129.385C47.7231 131.063 58.639 150.754 61.9674 147.957C63.9587 145.067 54.0409 128.049 51.2528 129.385Z" fill="#6153BD"/>
<path id="Vector_8" d="M18.0446 91.7188C17.9765 91.9694 17.957 92.2307 17.9872 92.4887C18.1326 93.4178 19.3226 93.4614 20.1216 93.2433C19.5621 92.5753 18.8496 92.0523 18.0446 91.7188Z" fill="#6153BD"/>
<path id="Vector_9" d="M25.7544 84.1389C26.3054 84.8216 26.8718 85.5035 27.3807 86.1288C27.4657 85.8854 27.5192 85.6313 27.5407 85.3742C27.5556 85.1557 27.5135 84.9371 27.4185 84.7398C27.3235 84.5425 27.1788 84.3733 26.9987 84.2487C26.8186 84.1241 26.6092 84.0485 26.3911 84.0293C26.1729 84.0101 25.9535 84.0478 25.7544 84.1389Z" fill="#6153BD"/>
<path id="Vector_10" d="M52.182 54.7227C52.0209 54.7399 51.8685 54.8044 51.744 54.9082C51.6196 55.012 51.5288 55.1504 51.483 55.3058C51.4373 55.4612 51.4387 55.6267 51.487 55.7814C51.5353 55.936 51.6285 56.0728 51.7546 56.1745C51.8807 56.2762 52.0342 56.3382 52.1956 56.3527C52.3569 56.3671 52.519 56.3334 52.6612 56.2557C52.8034 56.178 52.9193 56.0599 52.9944 55.9163C53.0694 55.7727 53.1002 55.6101 53.0828 55.449C53.0728 55.3416 53.0414 55.2372 52.9904 55.1422C52.9394 55.0471 52.8699 54.9632 52.7859 54.8955C52.7019 54.8278 52.6052 54.7776 52.5014 54.7479C52.3977 54.7182 52.2891 54.7097 52.182 54.7227Z" fill="#6153BD"/>
<path id="Vector_11" d="M46.3732 61.4722C46.2632 61.4798 46.1559 61.5095 46.0578 61.5596C45.9596 61.6096 45.8725 61.679 45.8018 61.7635C45.7311 61.848 45.6781 61.9459 45.6461 62.0514C45.6141 62.1568 45.6037 62.2676 45.6156 62.3772C45.6274 62.4868 45.6613 62.5928 45.7151 62.689C45.7689 62.7851 45.8416 62.8695 45.9287 62.9369C46.0159 63.0043 46.1158 63.0534 46.2224 63.0813C46.329 63.1092 46.4402 63.1153 46.5492 63.0993C46.7586 63.0684 46.948 62.9576 47.0775 62.7901C47.207 62.6226 47.2667 62.4115 47.2439 62.201C47.2211 61.9906 47.1177 61.7971 46.9554 61.6612C46.793 61.5253 46.5844 61.4575 46.3732 61.4722Z" fill="#6153BD"/>
<path id="Vector_12" d="M49.8155 70.3883C49.7061 70.3965 49.5995 70.4266 49.502 70.4768C49.4045 70.527 49.3181 70.5962 49.2478 70.6805C49.1776 70.7647 49.125 70.8622 49.0931 70.9671C49.0613 71.0721 49.0509 71.1823 49.0624 71.2914C49.074 71.4005 49.1074 71.5061 49.1606 71.602C49.2138 71.6979 49.2857 71.7822 49.3721 71.8498C49.4584 71.9174 49.5575 71.9669 49.6634 71.9955C49.7693 72.0241 49.8798 72.0311 49.9885 72.0161C50.1993 71.9871 50.3905 71.8772 50.5216 71.7096C50.6528 71.542 50.7136 71.33 50.6911 71.1184C50.6686 70.9068 50.5646 70.7122 50.4012 70.5759C50.2378 70.4397 50.0277 70.3724 49.8155 70.3883Z" fill="#6153BD"/>
<path id="Vector_13" d="M42.2648 59.9332C42.1576 59.9441 42.0537 59.976 41.9589 60.0273C41.8641 60.0785 41.7803 60.1479 41.7124 60.2315C41.6445 60.3152 41.5938 60.4115 41.5632 60.5148C41.5326 60.6181 41.5227 60.7264 41.5341 60.8336C41.5455 60.9407 41.578 61.0446 41.6296 61.1391C41.6812 61.2337 41.751 61.3171 41.835 61.3847C41.919 61.4522 42.0154 61.5024 42.1189 61.5326C42.2223 61.5627 42.3307 61.5721 42.4378 61.5602C42.6528 61.5364 42.8497 61.4284 42.9852 61.2598C43.1208 61.0912 43.1841 60.8757 43.1612 60.6606C43.1384 60.4455 43.0312 60.2482 42.8632 60.1118C42.6952 59.9755 42.4801 59.9113 42.2648 59.9332Z" fill="#6153BD"/>
<path id="Vector_14" d="M59.0942 57.9152C58.9839 57.9221 58.8761 57.9512 58.7774 58.0009C58.6786 58.0506 58.5909 58.1197 58.5196 58.2042C58.4483 58.2886 58.3948 58.3866 58.3624 58.4923C58.33 58.598 58.3193 58.7091 58.331 58.819C58.3427 58.929 58.3765 59.0354 58.4304 59.1319C58.4843 59.2284 58.5572 59.3129 58.6447 59.3805C58.7322 59.4481 58.8324 59.4973 58.9394 59.5251C59.0464 59.5529 59.1579 59.5587 59.2672 59.5423C59.4759 59.5108 59.6644 59.4001 59.7934 59.2331C59.9224 59.0661 59.9819 58.8558 59.9596 58.6459C59.9373 58.4361 59.8349 58.2429 59.6736 58.1068C59.5124 57.9707 59.3048 57.902 59.0942 57.9152Z" fill="#6153BD"/>
<path id="Vector_15" d="M54.3601 64.5368C54.2511 64.5454 54.145 64.5759 54.048 64.6263C53.951 64.6767 53.865 64.746 53.7952 64.8301C53.7255 64.9143 53.6733 65.0116 53.6417 65.1163C53.6102 65.221 53.5999 65.3309 53.6116 65.4396C53.6233 65.5483 53.6566 65.6536 53.7096 65.7492C53.7627 65.8448 53.8343 65.9288 53.9204 65.9962C54.0064 66.0637 54.1051 66.1132 54.2106 66.1418C54.3161 66.1705 54.4263 66.1777 54.5346 66.1631C54.7458 66.1345 54.9375 66.0247 55.069 65.857C55.2004 65.6893 55.2613 65.4769 55.2385 65.265C55.2158 65.0531 55.1113 64.8585 54.9472 64.7225C54.7832 64.5865 54.5725 64.5198 54.3601 64.5368Z" fill="#6153BD"/>
<path id="Vector_16" d="M62.8553 67.6147C62.7461 67.6232 62.6396 67.6534 62.5423 67.7037C62.445 67.754 62.3587 67.8233 62.2887 67.9076C62.2186 67.9918 62.1662 68.0893 62.1344 68.1941C62.1027 68.299 62.0924 68.4092 62.104 68.5181C62.1156 68.627 62.149 68.7325 62.2021 68.8284C62.2553 68.9242 62.3271 69.0084 62.4133 69.0759C62.4996 69.1435 62.5985 69.193 62.7043 69.2217C62.81 69.2503 62.9205 69.2574 63.029 69.2426C63.2401 69.2138 63.4316 69.1038 63.563 68.9361C63.6943 68.7684 63.7551 68.5561 63.7325 68.3443C63.7099 68.1325 63.6057 67.9378 63.4419 67.8016C63.2781 67.6654 63.0677 67.5983 62.8553 67.6147Z" fill="#6153BD"/>
<path id="Vector_17" d="M66.3834 53.5298C66.2222 53.5468 66.0697 53.6113 65.9452 53.715C65.8207 53.8187 65.7297 53.957 65.6839 54.1125C65.638 54.2679 65.6393 54.4334 65.6876 54.5881C65.7358 54.7428 65.8289 54.8797 65.955 54.9815C66.0811 55.0833 66.2346 55.1453 66.396 55.1598C66.5574 55.1743 66.7195 55.1406 66.8617 55.063C67.004 54.9853 67.12 54.8672 67.195 54.7235C67.2701 54.5799 67.3009 54.4173 67.2834 54.2561C67.2736 54.1487 67.2423 54.0444 67.1913 53.9493C67.1404 53.8543 67.0709 53.7704 66.987 53.7027C66.9031 53.6349 66.8064 53.5847 66.7027 53.5551C66.599 53.5254 66.4905 53.5168 66.3834 53.5298Z" fill="#6153BD"/>
<path id="Vector_18" d="M73.992 67.2657C73.8827 67.2739 73.776 67.304 73.6785 67.3542C73.581 67.4044 73.4946 67.4737 73.4243 67.5579C73.3541 67.6421 73.3015 67.7396 73.2697 67.8446C73.2378 67.9495 73.2274 68.0598 73.239 68.1689C73.2505 68.2779 73.2839 68.3835 73.3371 68.4794C73.3903 68.5754 73.4622 68.6596 73.5486 68.7272C73.6349 68.7948 73.734 68.8444 73.8399 68.8729C73.9458 68.9015 74.0563 68.9085 74.165 68.8936C74.3758 68.8645 74.567 68.7546 74.6982 68.587C74.8293 68.4194 74.8901 68.2074 74.8676 67.9958C74.8451 67.7842 74.7411 67.5897 74.5777 67.4534C74.4143 67.3171 74.2042 67.2498 73.992 67.2657Z" fill="#6153BD"/>
<path id="Vector_19" d="M74.0212 59.6423C74.128 59.631 74.2316 59.5988 74.326 59.5474C74.4203 59.4961 74.5036 59.4266 74.5711 59.343C74.6386 59.2594 74.6889 59.1633 74.7191 59.0602C74.7494 58.9571 74.759 58.8491 74.7475 58.7422C74.7144 58.5349 74.603 58.3482 74.4363 58.2207C74.2695 58.0932 74.0601 58.0345 73.8514 58.0569C73.6427 58.0793 73.4505 58.181 73.3146 58.341C73.1787 58.501 73.1095 58.7071 73.1211 58.9167C73.1324 59.0236 73.1646 59.1271 73.216 59.2214C73.2674 59.3158 73.3369 59.399 73.4205 59.4664C73.5041 59.5338 73.6002 59.5841 73.7033 59.6142C73.8064 59.6444 73.9144 59.6539 74.0212 59.6423Z" fill="#6153BD"/>
<path id="Vector_20" d="M82.8937 68.9938C82.733 69.0113 82.5811 69.0758 82.4569 69.1793C82.3328 69.2828 82.2419 69.4206 82.1957 69.5755C82.1611 69.6915 82.1527 69.8139 82.1712 69.9336C82.1897 70.0534 82.2346 70.1675 82.3027 70.2677C82.3707 70.3679 82.4602 70.4518 82.5647 70.5131C82.6692 70.5745 82.786 70.6118 82.9067 70.6224C83.021 70.6336 83.1363 70.6206 83.2453 70.5844C83.3542 70.5481 83.4543 70.4893 83.5391 70.4118C83.6238 70.3344 83.6913 70.2399 83.7372 70.1347C83.7831 70.0294 83.8063 69.9157 83.8054 69.8009C83.8045 69.6861 83.7795 69.5727 83.7319 69.4682C83.6843 69.3637 83.6153 69.2704 83.5293 69.1943C83.4434 69.1181 83.3423 69.061 83.2328 69.0264C83.1233 68.9919 83.0078 68.9808 82.8937 68.9938Z" fill="#6153BD"/>
<path id="Vector_21" d="M83.91 60.3403C83.7493 60.3579 83.5973 60.4225 83.4731 60.5261C83.3489 60.6297 83.2581 60.7677 83.212 60.9227C83.1784 61.0386 83.1709 61.1604 83.19 61.2795C83.209 61.3986 83.2542 61.5121 83.3223 61.6116C83.3903 61.7112 83.4796 61.7945 83.5837 61.8555C83.6877 61.9165 83.804 61.9537 83.9241 61.9645C84.0443 61.9753 84.1653 61.9593 84.2786 61.9178C84.3918 61.8762 84.4945 61.8101 84.5791 61.7242C84.6638 61.6383 84.7284 61.5347 84.7684 61.4209C84.8083 61.3071 84.8225 61.1858 84.81 61.0658C84.7867 60.8504 84.6791 60.6528 84.5108 60.5163C84.3416 60.3806 84.1257 60.3174 83.91 60.3403Z" fill="#6153BD"/>
<path id="Vector_22" d="M91.1699 57.4359C91.1617 57.3265 91.1316 57.2199 91.0814 57.1224C91.0313 57.0249 90.962 56.9384 90.8778 56.8682C90.7935 56.7979 90.696 56.7453 90.5911 56.7135C90.4861 56.6817 90.3759 56.6712 90.2668 56.6828C90.1577 56.6944 90.0521 56.7278 89.9562 56.781C89.8603 56.8341 89.776 56.9061 89.7084 56.9924C89.6408 57.0788 89.5913 57.1779 89.5627 57.2837C89.5341 57.3896 89.5271 57.5002 89.5421 57.6088C89.5711 57.8196 89.6811 58.0109 89.8486 58.142C90.0162 58.2731 90.2282 58.3339 90.4398 58.3114C90.6514 58.2889 90.846 58.185 90.9823 58.0216C91.1185 57.8581 91.1858 57.6481 91.1699 57.4359Z" fill="#6153BD"/>
<path id="Vector_23" d="M115.405 12.0008C115.316 10.8749 114.829 9.8176 114.03 9.01874C113.232 8.21988 112.175 7.73184 111.049 7.64228C109.923 7.55305 108.803 7.86834 107.888 8.53146C106.974 9.19458 106.326 10.1621 106.062 11.26C104.75 10.6497 103.303 10.3875 101.86 10.4985C100.418 10.6096 99.0282 11.0902 97.8253 11.8942C96.6224 12.6981 95.6467 13.7982 94.9923 15.0885C94.3379 16.3789 94.0267 17.816 94.0888 19.2614C95.8378 18.7874 97.6352 18.5144 99.4461 18.4479C99.544 19.0426 99.6795 19.6303 99.8525 20.2082C100.012 20.5709 100.259 20.6 100.694 19.9319C101.668 18.5237 103.642 20.7018 101.333 22.3863C102.33 24.111 103.596 25.6652 105.083 26.9897C107.08 26.3469 108.767 24.9858 109.817 23.1701C110.868 21.3544 111.207 19.2134 110.768 17.1622C110.873 17.1622 110.977 17.1568 111.081 17.1446C111.703 17.0909 112.308 16.9153 112.862 16.6277C113.416 16.3401 113.907 15.9462 114.309 15.4685C114.71 14.9908 115.014 14.4387 115.202 13.8437C115.39 13.2487 115.459 12.6225 115.405 12.0008Z" fill="#6153BD"/>
<path id="Vector_24" d="M53.8665 88.5098L54.0264 94.4028L56.1004 92.53C55.196 91.2852 54.4458 89.9352 53.8665 88.5098Z" fill="#6153BD"/>
<path id="Vector_25" d="M67.1968 61.603L69.2586 64.5365L69.3749 68.2973L67.1968 61.603Z" fill="#6153BD"/>
<path id="Vector_26" d="M63.6388 41.7246C63.8915 41.6784 64.1194 41.5437 64.2818 41.3448C64.4442 41.1458 64.5304 40.8956 64.5252 40.6388C64.52 40.3821 64.4235 40.1356 64.2531 39.9434C64.0827 39.7513 63.8495 39.626 63.5952 39.5901C63.7919 39.4464 63.9345 39.2406 64 39.0059C64.0655 38.7713 64.05 38.5214 63.9562 38.2966C63.8623 38.0718 63.6954 37.8851 63.4825 37.7667C63.2696 37.6483 63.023 37.605 62.7824 37.6439C62.9057 37.4393 62.958 37.1998 62.9312 36.9625C62.9045 36.7251 62.8002 36.5033 62.6345 36.3312C62.4688 36.1592 62.251 36.0466 62.0149 36.0109C61.7787 35.9753 61.5374 36.0185 61.3283 36.1339C61.3792 35.8901 61.3448 35.6361 61.2308 35.4146C61.1168 35.1932 60.9302 35.0175 60.7022 34.9172C60.4742 34.8169 60.2186 34.7979 59.9783 34.8635C59.738 34.9291 59.5275 35.0753 59.3821 35.2775C59.3586 35.0158 59.2446 34.7704 59.0596 34.5838C58.8746 34.3971 58.6303 34.2808 58.3688 34.255C58.1073 34.2291 57.8449 34.2954 57.627 34.4422C57.409 34.589 57.2492 34.8073 57.1749 35.0594C57.0722 34.8332 56.8952 34.6491 56.6733 34.5376C56.4513 34.4261 56.1979 34.3939 55.9552 34.4465C55.7124 34.4991 55.495 34.6333 55.3392 34.8267C55.1833 35.0201 55.0984 35.261 55.0986 35.5094C54.9174 35.3536 54.69 35.2617 54.4515 35.2478C54.2129 35.2339 53.9764 35.2988 53.7783 35.4325C53.5803 35.5662 53.4316 35.7613 53.3553 35.9877C53.279 36.2142 53.2792 36.4594 53.3559 36.6857C53.1302 36.6024 52.8831 36.5966 52.6538 36.6693C52.4244 36.742 52.2257 36.889 52.0892 37.0872C51.9526 37.2853 51.886 37.5233 51.8997 37.7635C51.9135 38.0037 52.0068 38.2326 52.1651 38.4138C51.9088 38.3998 51.6559 38.4767 51.4509 38.6311C51.2458 38.7854 51.102 39.0073 51.0447 39.2574C50.9873 39.5076 51.0203 39.7699 51.1376 39.9981C51.255 40.2264 51.4492 40.4058 51.686 40.5047C51.4343 40.5534 51.2081 40.69 51.0477 40.8899C50.8872 41.0899 50.803 41.3403 50.81 41.5966C50.817 41.8529 50.9147 42.0984 51.0858 42.2893C51.2569 42.4802 51.4902 42.6042 51.7442 42.6392C51.5516 42.7853 51.4135 42.9916 51.3517 43.2252C51.29 43.4589 51.3082 43.7065 51.4034 43.9286C51.4986 44.1507 51.6654 44.3346 51.8772 44.451C52.089 44.5674 52.3337 44.6096 52.5722 44.5709C52.4519 44.7764 52.4025 45.0159 52.4317 45.2523C52.4609 45.4887 52.5671 45.7089 52.7339 45.879C52.9007 46.0491 53.1188 46.1596 53.3546 46.1935C53.5903 46.2273 53.8307 46.1826 54.0386 46.0663C53.9906 46.3094 54.0272 46.5615 54.1424 46.7809C54.2576 47.0002 54.4444 47.1735 54.6718 47.2719C54.8992 47.3703 55.1534 47.3878 55.3921 47.3217C55.6309 47.2555 55.8398 47.1096 55.9841 46.9082C55.9969 47.0894 56.0544 47.2646 56.1515 47.4182C56.2486 47.5717 56.3822 47.6988 56.5405 47.788C56.6987 47.8773 56.8766 47.9259 57.0583 47.9296C57.2399 47.9332 57.4196 47.8918 57.5813 47.809C57.7114 47.649 59.4946 45.4564 60.1222 44.6574C58.5839 42.9155 59.8612 41.7828 60.6885 42.93C61.1248 43.5545 61.76 43.38 61.385 41.521C61.8661 41.3118 62.3272 41.0592 62.7625 40.7664C63.0687 41.942 63.2983 42.9446 63.4888 43.7864C63.7096 43.7291 63.9069 43.604 64.053 43.4287C64.199 43.2534 64.2864 43.0368 64.303 42.8093C64.3195 42.5818 64.2644 42.3548 64.1452 42.1602C64.0261 41.9657 63.849 41.8133 63.6388 41.7246Z" fill="#6153BD"/>
</g>
<g id="Group_4">
<path id="Vector_27" d="M63.4935 43.7865C63.3052 42.9446 63.0725 41.9428 62.7679 40.7665C62.3326 41.0593 61.8715 41.3119 61.3904 41.5211C61.7684 43.3801 61.134 43.5508 60.6939 42.9301C59.875 41.776 58.5885 42.9156 60.1276 44.6574C59.2871 45.7134 58.4399 46.7639 57.5859 47.809C57.4243 47.8921 57.2445 47.9336 57.0628 47.9301C56.8811 47.9265 56.7031 47.8779 56.5448 47.7887C56.3865 47.6994 56.2528 47.5722 56.1558 47.4186C56.0587 47.2649 56.0013 47.0896 55.9887 46.9083C55.844 47.1088 55.6352 47.254 55.3967 47.3197C55.1583 47.3853 54.9045 47.3676 54.6776 47.2694C54.4506 47.1711 54.264 46.9983 54.1486 46.7796C54.0332 46.5608 53.9961 46.3092 54.0432 46.0664C53.8354 46.1827 53.595 46.2274 53.3592 46.1935C53.1234 46.1597 52.9053 46.0492 52.7385 45.8791C52.5717 45.709 52.4655 45.4888 52.4363 45.2524C52.4071 45.016 52.4565 44.7765 52.5769 44.5709C52.3383 44.6097 52.0937 44.5675 51.8818 44.4511C51.67 44.3347 51.5032 44.1508 51.408 43.9287C51.3128 43.7066 51.2946 43.459 51.3564 43.2253C51.4181 42.9916 51.5563 42.7853 51.7488 42.6393C51.4948 42.6043 51.2615 42.4803 51.0904 42.2894C50.9193 42.0984 50.8216 41.853 50.8146 41.5967C50.8076 41.3404 50.8919 41.09 51.0523 40.89C51.2127 40.69 51.4389 40.5535 51.6906 40.5048C51.4538 40.4059 51.2596 40.2265 51.1423 39.9982C51.0249 39.77 50.992 39.5076 51.0493 39.2575C51.1066 39.0073 51.2505 38.7855 51.4555 38.6311C51.6605 38.4768 51.9135 38.3998 52.1697 38.4139C52.0108 38.2328 51.9168 38.0038 51.9027 37.7633C51.8886 37.5227 51.9552 37.2843 52.0919 37.0859C52.2286 36.8875 52.4277 36.7404 52.6575 36.6679C52.8873 36.5954 53.1347 36.6017 53.3606 36.6858C53.286 36.4601 53.2873 36.2163 53.3642 35.9914C53.4411 35.7665 53.5894 35.5729 53.7865 35.4401C53.9836 35.3073 54.2187 35.2426 54.456 35.2558C54.6933 35.269 54.9198 35.3595 55.1009 35.5133C55.1007 35.265 55.1857 35.024 55.3415 34.8306C55.4974 34.6372 55.7148 34.5031 55.9575 34.4504C56.2002 34.3978 56.4537 34.43 56.6756 34.5415C56.8975 34.653 57.0746 34.8372 57.1773 35.0633C57.2515 34.8112 57.4114 34.5929 57.6293 34.4461C57.8473 34.2993 58.1096 34.233 58.3711 34.2589C58.6326 34.2847 58.8769 34.401 59.0619 34.5877C59.2469 34.7743 59.361 35.0197 59.3844 35.2814C59.5303 35.08 59.7407 34.9347 59.9807 34.8696C60.2207 34.8045 60.4758 34.8236 60.7034 34.9238C60.931 35.0239 61.1174 35.199 61.2315 35.42C61.3457 35.6409 61.3807 35.8942 61.3307 36.1378C61.5398 36.0224 61.7811 35.9792 62.0172 36.0149C62.2534 36.0505 62.4712 36.1631 62.6368 36.3351C62.8025 36.5072 62.9068 36.729 62.9336 36.9664C62.9603 37.2037 62.908 37.4432 62.7848 37.6478C63.0253 37.609 63.2719 37.6522 63.4848 37.7706C63.6977 37.889 63.8646 38.0757 63.9585 38.3005C64.0524 38.5253 64.0678 38.7752 64.0024 39.0099C63.9369 39.2445 63.7943 39.4503 63.5976 39.594C63.8526 39.6289 64.0869 39.7537 64.2581 39.9459C64.4294 40.1382 64.5264 40.3852 64.5316 40.6426C64.5369 40.9 64.4501 41.1509 64.2868 41.3499C64.1236 41.549 63.8946 41.6833 63.6412 41.7285C63.8492 41.8185 64.0241 41.9709 64.1417 42.1646C64.2594 42.3583 64.3138 42.5839 64.2976 42.8099C64.2814 43.036 64.1953 43.2514 64.0512 43.4264C63.9071 43.6013 63.7122 43.7272 63.4935 43.7865Z" stroke="#120071" stroke-width="0.769171" stroke-linecap="round" stroke-linejoin="round"/>
<path id="Vector_28" d="M63.668 37.8329L67.5596 37.5137C68.0243 37.473 68.4924 37.5247 68.937 37.6656C69.3816 37.8066 69.7939 38.0341 70.1502 38.3351C70.5065 38.636 70.7998 39.0045 71.0131 39.4193C71.2264 39.8341 71.3556 40.2869 71.3932 40.7518L72.4531 53.4861" stroke="#120071" stroke-width="0.769171" stroke-linecap="round" stroke-linejoin="round"/>
<path id="Vector_29" d="M69.5195 68.0938L70.115 68.0502C70.6347 68.0444 71.1426 67.8935 71.5813 67.6147" stroke="#120071" stroke-width="0.769171" stroke-linecap="round" stroke-linejoin="round"/>
<path id="Vector_30" d="M42.5693 70.3562L34.7577 71.0244C33.8202 71.1028 32.89 70.8059 32.1714 70.1989C31.4527 69.5918 31.0044 68.7244 30.9249 67.787L28.9351 44.3214C28.8563 43.3837 29.1531 42.453 29.7603 41.7342C30.3676 41.0153 31.2355 40.567 32.1732 40.4879L51.2734 38.8784" stroke="#120071" stroke-width="0.769171" stroke-linecap="round" stroke-linejoin="round"/>
<path id="Vector_31" d="M67.7195 115.823L114.243 111.903C115.514 111.794 116.69 111.186 117.512 110.211C118.334 109.236 118.736 107.975 118.628 106.704L115.927 74.9763C115.819 73.7057 115.211 72.53 114.236 71.7077C113.261 70.8854 112 70.4838 110.729 70.591L85.8715 72.6827" stroke="#120071" stroke-width="0.769171" stroke-linecap="round" stroke-linejoin="round"/>
<path id="Vector_32" d="M69.0986 74.1055L76.8238 73.4519" stroke="#120071" stroke-width="0.769171" stroke-linecap="round" stroke-linejoin="round"/>
<path id="Vector_33" d="M94.1616 21.8137L79.8148 23.0482C78.5007 23.1949 77.2983 23.8563 76.471 24.8877C75.6436 25.919 75.2586 27.2363 75.4004 28.5509L78.2758 61.6435" stroke="#120071" stroke-width="0.769171" stroke-linecap="round" stroke-linejoin="round"/>
<path id="Vector_34" d="M88.6436 66.4966L132.161 62.7358C133.127 62.6485 134.045 62.272 134.793 61.6554C135.542 61.0389 136.087 60.2108 136.358 59.2795" stroke="#120071" stroke-width="0.769171" stroke-linecap="round" stroke-linejoin="round"/>
<path id="Vector_35" d="M134.964 38.5446L133.671 23.5159C133.585 22.1956 132.978 20.9634 131.985 20.0895C130.991 19.2156 129.692 18.7714 128.371 18.8543L110.845 20.3651" stroke="#120071" stroke-width="0.769171" stroke-linecap="round" stroke-linejoin="round"/>
<path id="Vector_36" d="M119.035 42.9153C117.539 45.2671 114.388 52.1359 112.558 56.5932C116.071 57.9662 119.031 60.4628 120.977 63.6939" stroke="#120071" stroke-width="0.769171" stroke-linecap="round" stroke-linejoin="round"/>
<path id="Vector_37" d="M95.6423 50.437C96.1735 53.1718 96.8668 55.8725 97.7187 58.525C96.9197 61.5304 96.6005 64.2021 96.2232 65.843" stroke="#120071" stroke-width="0.769171" stroke-linecap="round" stroke-linejoin="round"/>
<path id="Vector_38" d="M97.0362 39.2563C95.9397 40.9471 95.2995 42.8929 95.178 44.9044" stroke="#120071" stroke-width="0.769171" stroke-linecap="round" stroke-linejoin="round"/>
<path id="Vector_39" d="M112.544 56.6079C108.449 59.5559 100.71 61.1233 97.7188 58.525" stroke="#120071" stroke-width="0.769171" stroke-linecap="round" stroke-linejoin="round"/>
<path id="Vector_40" d="M110.686 57.7258C112.87 59.4339 114.62 61.6327 115.796 64.1438" stroke="#120071" stroke-width="0.769171" stroke-linecap="round" stroke-linejoin="round"/>
<path id="Vector_41" d="M100.299 28.7699C100.727 27.8591 100.981 26.8757 101.046 25.8716C100.642 26.3143 100.22 26.7395 99.7805 27.1458" stroke="#120071" stroke-width="0.769171" stroke-linecap="round" stroke-linejoin="round"/>
<path id="Vector_42" d="M116.958 46.807L122.157 55.5914C126.179 62.8811 134.555 65.174 139.814 54.285C142.296 49.1443 143.473 45.6889 145.651 42.1163C142.089 41.101 138.846 39.1917 136.23 36.57C133.812 40.2086 131.662 44.018 129.797 47.968C119.269 25.5922 117.977 29.5374 110.963 29.1494C108.824 29.0904 106.763 28.3303 105.097 26.9858" stroke="#120071" stroke-width="0.769171" stroke-linecap="round" stroke-linejoin="round"/>
<path id="Vector_43" d="M89.7617 46.981C91.838 39.9239 96.4897 36.6621 98.5316 34.4358C99.4926 33.5144 100.133 32.309 100.357 30.9967C100.582 29.6845 100.38 28.3348 99.7806 27.146C96.1216 30.3696 94.1034 27.7996 94.1034 19.2632" stroke="#120071" stroke-width="0.769171" stroke-linecap="round" stroke-linejoin="round"/>
<path id="Vector_44" d="M111.847 29.1787C108.937 31.5176 106.31 34.1889 104.02 37.1381C103.662 37.5851 103.193 37.9313 102.66 38.1429C102.128 38.3545 101.549 38.4242 100.982 38.3453C100.414 38.2665 99.8763 38.0416 99.4215 37.6928C98.9667 37.3439 98.6103 36.883 98.3869 36.3552C98.2118 35.948 98.0472 35.5364 97.8933 35.1207" stroke="#120071" stroke-width="0.769171" stroke-linecap="round" stroke-linejoin="round"/>
<path id="Vector_45" d="M129.794 47.968L128.067 51.8597" stroke="#120071" stroke-width="0.769171" stroke-linecap="round" stroke-linejoin="round"/>
<path id="Vector_46" d="M57.5835 47.8088C55.5539 50.4109 54.1174 50.2403 50.2946 51.9469C42.5112 55.4177 45.183 69.3282 45.183 69.3282" stroke="#120071" stroke-width="0.769171" stroke-linecap="round" stroke-linejoin="round"/>
<path id="Vector_47" d="M63.4933 43.7864C64.1278 46.7275 64.0704 47.8533 63.6533 48.4617C63.3472 48.9125 62.1142 49.0572 60.9961 49.0572" stroke="#120071" stroke-width="0.769171" stroke-linecap="round" stroke-linejoin="round"/>
<path id="Vector_48" d="M63.7864 48.2175C63.38 49.0594 61.8387 48.2175 60.2988 47.0994C60.5897 48.4356 60.7925 50.0367 61.8815 50.1048C71.5353 50.7102 72.5547 51.8038 80.9328 66.1766" stroke="#120071" stroke-width="0.769171" stroke-linecap="round" stroke-linejoin="round"/>
<path id="Vector_49" d="M79.902 64.3912C80.2648 63.3748 82.5156 58.7423 83.8228 54.5606C86.6851 54.2522 89.562 55.0014 91.9108 56.666C91.01 60.935 88.3972 67.4119 86.1456 72.1722C85.763 72.977 85.1943 73.6791 84.4866 74.2205C83.7789 74.7618 82.9524 75.127 82.0756 75.2856C81.1989 75.4445 80.297 75.3925 79.4443 75.134C78.5917 74.8754 77.8129 74.4177 77.1721 73.7986C73.4128 70.1021 70.0723 66.0025 67.2114 61.574" stroke="#120071" stroke-width="0.769171" stroke-linecap="round" stroke-linejoin="round"/>
<path id="Vector_50" d="M67.2258 61.574L69.3749 68.2974" stroke="#120071" stroke-width="0.769171" stroke-linecap="round" stroke-linejoin="round"/>
<path id="Vector_51" d="M51.3555 73.7863C55.6681 75.1639 63.0443 74.6427 68.8095 73.0745C69.6804 71.361 69.3176 64.5947 69.3176 64.5947" stroke="#120071" stroke-width="0.769171" stroke-linecap="round" stroke-linejoin="round"/>
<path id="Vector_52" d="M51.311 73.4517C49.4528 76.1235 45.8007 76.2222 44.1231 73.4372C42.0092 69.9167 41.1031 64.8992 40.6531 59.3231C40.6531 59.3231 43.944 58.27 45.3216 58.6825" stroke="#120071" stroke-width="0.769171" stroke-linecap="round" stroke-linejoin="round"/>
<path id="Vector_53" d="M56.1004 92.5298L40.7672 106.107C39.7529 106.999 38.4497 107.493 37.0989 107.498C35.7481 107.504 34.4412 107.019 33.42 106.135L18.3347 93.0839" stroke="#120071" stroke-width="0.769171" stroke-linecap="round" stroke-linejoin="round"/>
<path id="Vector_54" d="M38.6057 95.1603L27.1924 84.4006" stroke="#120071" stroke-width="0.769171" stroke-linecap="round" stroke-linejoin="round"/>
<path id="Vector_55" d="M48.9727 59.2222C48.9727 59.2222 51.4982 69.401 51.3398 74.0473C48.2675 75.7937 45.8936 78.5486 44.6203 81.8452C42.7659 86.8558 36.3433 92.9531 36.3433 92.9531" stroke="#120071" stroke-width="0.769171" stroke-linecap="round" stroke-linejoin="round"/>
<path id="Vector_56" d="M68.8085 73.0747C71.654 82.7599 71.9372 89.2231 72.1331 98.6014C72.2896 101.26 71.9256 103.924 71.0616 106.443L64.4117 125.145C60.3446 124.718 56.4349 123.34 52.9984 121.123L59.6491 102.072C59.7772 98.818 58.6855 95.6334 56.5878 93.1423C54.5112 90.6126 53.2102 87.5365 52.8416 84.2844" stroke="#120071" stroke-width="0.769171" stroke-linecap="round" stroke-linejoin="round"/>
<path id="Vector_57" d="M54.2444 50.3935C54.2444 50.3935 56.5671 52.9489 62.0851 50.1172" stroke="#120071" stroke-width="0.769171" stroke-linecap="round" stroke-linejoin="round"/>
<path id="Vector_58" d="M41.8001 58.9895C41.7547 56.774 41.5067 54.5673 41.0592 52.397C40.631 50.7266 40.0172 49.1093 39.2293 47.5754C38.0737 45.3223 38.4487 44.7123 40.3046 46.7627C42.1373 49.0633 43.6467 51.6037 44.791 54.3134" stroke="#120071" stroke-width="0.769171" stroke-linecap="round" stroke-linejoin="round"/>
<path id="Vector_59" d="M44.1467 52.8784C45.0689 53.9238 45.6207 50.7355 45.9674 50.0298C46.4465 49.0571 47.0389 47.9979 46.9983 50.9888C46.9869 51.8161 47.0856 53.1378 47.2164 54.4442" stroke="#120071" stroke-width="0.769171" stroke-linecap="round" stroke-linejoin="round"/>
<path id="Vector_60" d="M40.1887 49.7108C39.7678 49.2463 38.8111 48.3179 38.5333 48.0554C37.2644 46.8416 37.0118 47.2695 37.1557 47.5197C37.7067 48.4856 38.7399 49.9733 39.2221 50.8871C39.9935 52.3673 41.5594 55.1852 41.6466 56.637" stroke="#120071" stroke-width="0.769171" stroke-linecap="round" stroke-linejoin="round"/>
<path id="Vector_61" d="M39.172 50.7998C38.9248 50.6261 38.7205 50.483 38.6057 50.408C37.1347 49.449 36.9794 49.8852 37.1516 50.1018C37.8488 50.9728 39.1146 52.2631 39.7368 53.0927C40.4674 54.1148 41.0993 55.2039 41.6241 56.3453" stroke="#120071" stroke-width="0.769171" stroke-linecap="round" stroke-linejoin="round"/>
<path id="Vector_62" d="M91.2287 56.187C92.0076 53.8645 92.9892 51.6149 94.1622 49.4644C95.1551 47.8411 96.3289 46.3358 97.6613 44.9773C99.6175 42.9874 99.4216 42.2037 96.7904 43.7574C94.1065 45.5902 91.6836 47.7785 89.5879 50.2626" stroke="#120071" stroke-width="0.769171" stroke-linecap="round" stroke-linejoin="round"/>
<path id="Vector_63" d="M90.8087 48.8848C89.3439 49.977 89.8842 46.2468 89.7472 45.3689C89.5627 44.1919 89.2972 42.8717 88.3528 46.0516C88.0918 46.9218 87.031 49.6188 85.0312 54.487" stroke="#120071" stroke-width="0.769171" stroke-linecap="round" stroke-linejoin="round"/>
<path id="Vector_64" d="M95.9471 46.9081C96.5425 46.5453 97.8497 45.8917 98.227 45.7035C99.9697 44.8318 100.084 45.382 99.8679 45.5871C98.9747 46.4359 97.4005 47.665 96.6007 48.4762C95.3104 49.7857 92.7381 52.2516 92.1572 53.7623" stroke="#120071" stroke-width="0.769171" stroke-linecap="round" stroke-linejoin="round"/>
<path id="Vector_65" d="M96.6733 48.4042C96.9924 48.3024 97.2542 48.2159 97.3996 48.1746C99.2609 47.6044 99.2861 48.1585 99.0259 48.3345C98.005 49.0233 96.2539 49.9777 95.3225 50.6573C94.2208 51.4995 93.2 52.4426 92.2734 53.4745" stroke="#120071" stroke-width="0.769171" stroke-linecap="round" stroke-linejoin="round"/>
<path id="Vector_66" d="M21.8637 79.4054C19.2792 75.6928 3.43619 88.5005 4.24131 92.7404C4.36606 93.3971 4.93393 93.9848 6.25871 93.805C11.3504 93.1154 23.7732 82.1529 21.8637 79.4054Z" stroke="#120071" stroke-width="0.769171" stroke-linecap="round" stroke-linejoin="round"/>
<path id="Vector_67" d="M21.8635 79.4053C22.6618 80.4216 25.4062 83.7033 27.3662 86.1401" stroke="#120071" stroke-width="0.769171" stroke-linecap="round" stroke-linejoin="round"/>
<path id="Vector_68" d="M62.8114 124.942C62.1991 127.25 58.7628 132.317 61.4024 138.809C62.7548 142.134 63.5369 146.982 61.7086 148.202" stroke="#120071" stroke-width="0.769171" stroke-linecap="round" stroke-linejoin="round"/>
<path id="Vector_69" d="M50.7881 129.821C51.95 127.202 53.0924 124.574 54.2152 121.938" stroke="#120071" stroke-width="0.769171" stroke-linecap="round" stroke-linejoin="round"/>
<path id="Vector_70" d="M51.2528 129.385C48.0063 130.929 56.6728 146.8 60.6479 148.248C61.7462 148.648 62.2704 147.865 62.2276 146.7C62.0469 141.851 53.7623 128.194 51.2528 129.385Z" stroke="#120071" stroke-width="0.769171" stroke-linecap="round" stroke-linejoin="round"/>
<path id="Vector_71" d="M25.7408 84.1388C25.94 84.0488 26.1591 84.0117 26.3768 84.0312C26.5945 84.0506 26.8036 84.1259 26.9837 84.2498C27.1638 84.3739 27.3085 84.5427 27.4037 84.7397C27.4988 84.9367 27.5411 85.155 27.5263 85.3732C27.286 88.4345 21.5989 93.6786 19.0419 93.3694C18.2766 93.276 17.7914 92.7349 18.047 91.7048" stroke="#120071" stroke-width="0.769171" stroke-linecap="round" stroke-linejoin="round"/>
<path id="Vector_72" d="M63.5063 119.739L67.9628 105.644C68.7362 103.441 69.062 101.106 68.921 98.7758C68.3034 88.685 67.5565 80.8863 65.7411 73.7864" stroke="#120071" stroke-width="0.769171" stroke-linecap="round" stroke-linejoin="round"/>
<path id="Vector_73" d="M54.8101 115.924C58.1063 118.432 62.0985 119.858 66.2379 120.005" stroke="#120071" stroke-width="0.769171" stroke-linecap="round" stroke-linejoin="round"/>
<path id="Vector_74" d="M22.6328 96.8011C27.0327 95.3921 29.5016 92.2092 30.9825 88.0596" stroke="#120071" stroke-width="0.769171" stroke-linecap="round" stroke-linejoin="round"/>
<path id="Vector_75" d="M53.8664 88.5098L41.5094 99.4585C40.493 100.364 39.1807 100.866 37.8196 100.872C36.4584 100.877 35.1422 100.385 34.1187 99.4876L27.5989 93.766" stroke="#120071" stroke-width="0.769171" stroke-linecap="round" stroke-linejoin="round"/>
<path id="Vector_76" d="M55.9573 77.6482C55.769 77.6773 55.4927 81.3371 55.9864 82.818C56.9306 84.1232 58.1377 85.2163 59.5298 86.027C60.3261 84.7005 61.282 83.4765 62.3761 82.3825C62.2306 80.5381 62.0562 79.5654 61.8533 77.6191C59.8986 77.8986 57.9147 77.9084 55.9573 77.6482Z" stroke="#120071" stroke-width="0.769171" stroke-linecap="round" stroke-linejoin="round"/>
<path id="Vector_77" d="M47.7247 76.9082C48.4701 76.9188 49.2021 77.108 49.8592 77.46C48.523 78.1128 47.1729 81.4397 47.1729 81.4397L44.1958 82.8632" stroke="#120071" stroke-width="0.769171" stroke-linecap="round" stroke-linejoin="round"/>
<path id="Vector_78" d="M142.195 29.467C144.491 30.1926 145.767 31.3689 147.246 33.2569" stroke="#120071" stroke-width="0.769171" stroke-linecap="round" stroke-linejoin="round"/>
<path id="Vector_79" d="M141.629 30.5439C142.431 31.3571 143.054 32.3283 143.459 33.3957C143.864 34.463 144.042 35.6031 143.981 36.7431" stroke="#120071" stroke-width="0.769171" stroke-linecap="round" stroke-linejoin="round"/>
<path id="Vector_80" d="M146.043 31.8212C146.934 30.6475 147.679 29.37 148.262 28.0168C149.334 25.505 149.99 26.2022 149.395 28.5831C149.256 29.1393 149.101 29.6913 148.93 30.2385C148.507 31.5791 148.1 32.9249 147.711 34.2756C147.3 35.7114 144.573 41.7827 144.573 41.7827C142.017 41.1 139.36 39.2418 137.284 37.5282C137.327 37.441 138.432 35.4091 138.474 35.3356C138.699 34.9295 138.794 34.4644 138.748 34.0025C138.701 33.5406 138.514 33.104 138.213 32.7511C137.163 31.4914 135.757 29.6133 136.223 29.1058C136.946 28.3199 139.228 30.9778 140.448 31.1393C140.884 31.1967 141.233 29.8758 141.305 29.3967C141.436 28.5257 141.895 25.5624 141.929 25.2731C142.245 22.5807 143.207 23.0368 143.193 25.4177C143.178 27.6831 143.178 29.1495 143.178 29.1495" stroke="#120071" stroke-width="0.769171" stroke-linecap="round" stroke-linejoin="round"/>
<path id="Vector_81" d="M142.994 29.7303C142.994 29.7303 144.577 24.7649 144.678 24.4304C145.465 21.8322 146.291 22.4268 145.898 24.7641C145.521 27.0012 145.113 29.7303 145.113 29.7303" stroke="#120071" stroke-width="0.769171" stroke-linecap="round" stroke-linejoin="round"/>
<path id="Vector_82" d="M144.725 30.5293C145.483 29.0107 146.152 27.4493 146.729 25.8532C147.67 23.297 148.362 23.9499 147.92 26.2749C147.677 27.7204 147.333 29.147 146.889 30.5439" stroke="#120071" stroke-width="0.769171" stroke-linecap="round" stroke-linejoin="round"/>
<path id="Vector_83" d="M128.909 75.1072C128.948 75.4539 128.918 75.8049 128.821 76.14C128.724 76.4752 128.562 76.7879 128.344 77.0603C128.125 77.3325 127.855 77.5586 127.549 77.7257C127.243 77.8928 126.906 77.9975 126.559 78.0338C126.036 78.0885 125.509 77.9863 125.045 77.7401C124.581 77.4939 124.2 77.115 123.952 76.6516C123.788 76.3438 123.686 76.0064 123.652 75.659L123.232 71.6793C123.165 70.9856 123.375 70.2938 123.816 69.7542C124.257 69.2146 124.893 68.8709 125.586 68.7979C126.279 68.7252 126.973 68.9292 127.517 69.3655C128.06 69.8018 128.409 70.4351 128.488 71.1275L128.909 75.1072Z" stroke="#120071" stroke-width="0.769171" stroke-linecap="round" stroke-linejoin="round"/>
<path id="Vector_84" d="M121.503 74.0619L121.706 76.0219C121.834 77.2387 122.439 78.3552 123.389 79.1258C124.339 79.8965 125.557 80.2583 126.773 80.1317C127.99 80.0034 129.107 79.3983 129.878 78.4488C130.649 77.4982 131.01 76.2807 130.883 75.0638L130.68 73.1038" stroke="#120071" stroke-width="0.769171" stroke-linecap="round" stroke-linejoin="round"/>
<path id="Vector_85" d="M126.774 80.1318L127.166 83.7909" stroke="#120071" stroke-width="0.769171" stroke-linecap="round" stroke-linejoin="round"/>
<path id="Vector_86" d="M125.206 83.9943L129.112 83.5872" stroke="#120071" stroke-width="0.769171" stroke-linecap="round" stroke-linejoin="round"/>
<path id="Vector_87" d="M94.8143 95.1748L99.505 97.3675L98.6624 87.406L94.408 90.3678" stroke="#120071" stroke-width="0.769171" stroke-linecap="round" stroke-linejoin="round"/>
<path id="Vector_88" d="M90.3719 87.2177C91.3183 87.1348 92.261 87.4137 93.01 87.9983C93.759 88.5828 94.2586 89.4295 94.4082 90.3678L94.8 94.8832C94.8654 95.6257 94.7089 96.3709 94.3505 97.0244C93.992 97.678 93.4477 98.2105 92.7865 98.5545C92.347 98.7825 91.8669 98.9217 91.3737 98.9639L82.313 99.7185C81.8195 99.7637 81.3219 99.7109 80.8489 99.5632C80.3763 99.4146 79.9378 99.174 79.5585 98.8554C79.1792 98.5368 78.8666 98.1463 78.6387 97.7065C78.4112 97.2665 78.273 96.7858 78.2323 96.2922L77.8695 92.0829C77.8245 91.5896 77.8776 91.0922 78.0256 90.6195C78.1737 90.1468 78.4137 89.708 78.732 89.3285C79.0502 88.9486 79.4407 88.6357 79.8808 88.408C80.321 88.1803 80.802 88.0424 81.2959 88.0022L90.3719 87.2177Z" stroke="#120071" stroke-width="0.769171" stroke-linecap="round" stroke-linejoin="round"/>
<path id="Vector_89" d="M115.405 12.0008C115.338 11.1621 115.049 10.3564 114.568 9.66626C114.087 8.97608 113.431 8.42627 112.667 8.0732C111.903 7.72013 111.059 7.5765 110.222 7.65704C109.385 7.73759 108.584 8.03941 107.901 8.53155C106.987 9.1899 106.337 10.1522 106.068 11.2462C107.26 11.7962 108.307 12.6169 109.127 13.6428C109.946 14.6687 110.515 15.8717 110.787 17.156C111.436 17.141 112.074 16.9932 112.663 16.7218C113.252 16.4504 113.779 16.0611 114.212 15.578C114.645 15.0949 114.974 14.5282 115.179 13.9129C115.384 13.2977 115.461 12.6469 115.405 12.0008Z" stroke="#120071" stroke-width="0.769171" stroke-linecap="round" stroke-linejoin="round"/>
<path id="Vector_90" d="M110.918 18.2016C110.782 16.5607 110.169 14.9955 109.154 13.6992C108.139 12.4028 106.766 11.4321 105.206 10.9067C103.645 10.3813 101.965 10.3242 100.372 10.7425C98.78 11.1608 97.3448 12.0362 96.244 13.2607C94.768 14.9019 93.9942 17.0563 94.0888 19.2616C95.8378 18.7875 97.6352 18.5146 99.4461 18.448C99.544 19.0427 99.6795 19.6305 99.8525 20.2083C100.012 20.571 100.259 20.6001 100.694 19.932C101.668 18.5238 103.642 20.7019 101.333 22.3864C102.33 24.1112 103.596 25.6653 105.083 26.9898C106.907 26.4016 108.477 25.212 109.537 23.6157C110.597 22.0193 111.084 20.1106 110.918 18.2016Z" stroke="#120071" stroke-width="0.769171" stroke-linecap="round" stroke-linejoin="round"/>
<path id="Vector_91" d="M13.6885 67.2084L16.723 66.9031" stroke="#120071" stroke-width="0.769171" stroke-linecap="round" stroke-linejoin="round"/>
<path id="Vector_92" d="M22.0955 66.3512L25.1307 66.0466" stroke="#120071" stroke-width="0.769171" stroke-linecap="round" stroke-linejoin="round"/>
<path id="Vector_93" d="M18.8284 60.906L19.1337 63.9413" stroke="#120071" stroke-width="0.769171" stroke-linecap="round" stroke-linejoin="round"/>
<path id="Vector_94" d="M19.6855 69.3137L19.9901 72.3482" stroke="#120071" stroke-width="0.769171" stroke-linecap="round" stroke-linejoin="round"/>
<path id="Vector_95" d="M14.9519 62.9976L17.3183 64.9139" stroke="#120071" stroke-width="0.769171" stroke-linecap="round" stroke-linejoin="round"/>
<path id="Vector_96" d="M21.5 68.3264L23.8672 70.2573" stroke="#120071" stroke-width="0.769171" stroke-linecap="round" stroke-linejoin="round"/>
<path id="Vector_97" d="M23.0399 62.1694L21.1228 64.5366" stroke="#120071" stroke-width="0.769171" stroke-linecap="round" stroke-linejoin="round"/>
<path id="Vector_98" d="M17.7102 68.7185L15.7793 71.0857" stroke="#120071" stroke-width="0.769171" stroke-linecap="round" stroke-linejoin="round"/>
<path id="Vector_99" d="M83.9971 32.4456L82.2368 28.1475C83.313 26.5476 83.8333 24.6384 83.7177 22.7137C83.3986 17.6626 78.7079 13.7403 73.118 13.9002C67.411 14.0594 62.9101 18.4156 63.0693 23.629C63.2277 29.1325 68.376 33.0724 74.0004 32.741C76.0152 32.614 77.9579 31.9438 79.6225 30.8017L83.9971 32.4456Z" stroke="#120071" stroke-width="0.769171" stroke-linecap="round" stroke-linejoin="round"/>
<path id="Vector_100" d="M50.5417 30.2531C50.2733 30.5103 49.9346 30.682 49.5685 30.7467C49.2023 30.8114 48.8253 30.7661 48.4849 30.6164C48.1446 30.4668 47.8563 30.2196 47.6564 29.9061C47.4566 29.5926 47.3542 29.2269 47.3623 28.8552C47.3703 28.4835 47.4884 28.1225 47.7015 27.8179C47.9147 27.5133 48.2135 27.2788 48.5599 27.144C48.9064 27.0092 49.2851 26.9802 49.6481 27.0606C50.0111 27.1411 50.342 27.3273 50.5991 27.5959C50.9427 27.9564 51.1295 28.4384 51.1188 28.9363C51.108 29.4342 50.9005 29.9077 50.5417 30.2531Z" stroke="#120071" stroke-width="0.769171" stroke-linecap="round" stroke-linejoin="round"/>
<path id="Vector_101" d="M128.197 5.48096L128.851 13.4097" stroke="#120071" stroke-width="0.769171" stroke-linecap="round" stroke-linejoin="round"/>
<path id="Vector_102" d="M132.495 9.11108L124.567 9.77921" stroke="#120071" stroke-width="0.769171" stroke-linecap="round" stroke-linejoin="round"/>
<path id="Vector_103" d="M20.1209 93.2433C19.5681 92.5658 18.855 92.0371 18.0461 91.705C16.638 91.196 15.2565 91.646 13.6157 92.1114C10.3095 93.0298 6.76526 95.0242 4.90552 93.6474" stroke="#120071" stroke-width="0.769171" stroke-linecap="round" stroke-linejoin="round"/>
<path id="Vector_104" d="M54.0264 94.4051L53.8665 88.5098" stroke="#120071" stroke-width="0.769171" stroke-linecap="round" stroke-linejoin="round"/>
</g>
</g>
</g>
</svg>
