<svg width="154" height="154" viewBox="0 0 154 154" fill="none" xmlns="http://www.w3.org/2000/svg">
<g id="virtual-meeting">
<g id="virtual-meeting-3--work-virtual-meeting">
<g id="window">
<path id="vector" d="M33.7314 38.672V16.9421H121.406V74.177H95.2001" stroke="#120071" stroke-width="0.769171" stroke-linecap="round" stroke-linejoin="round"/>
<path id="vector_2" d="M33.7314 23.5901H121.406" stroke="#120071" stroke-width="0.769171" stroke-linecap="round" stroke-linejoin="round"/>
<path id="vector_3" d="M37.6913 21.6003C38.4234 21.6003 39.0168 21.0069 39.0168 20.2748C39.0168 19.5427 38.4234 18.9492 37.6913 18.9492C36.9592 18.9492 36.3657 19.5427 36.3657 20.2748C36.3657 21.0069 36.9592 21.6003 37.6913 21.6003Z" stroke="#120071" stroke-width="0.769171" stroke-linecap="round" stroke-linejoin="round"/>
<path id="vector_4" d="M41.9686 21.6003C42.7007 21.6003 43.2942 21.0069 43.2942 20.2748C43.2942 19.5427 42.7007 18.9492 41.9686 18.9492C41.2366 18.9492 40.6431 19.5427 40.6431 20.2748C40.6431 21.0069 41.2366 21.6003 41.9686 21.6003Z" stroke="#120071" stroke-width="0.769171" stroke-linecap="round" stroke-linejoin="round"/>
<path id="vector_5" d="M46.2469 21.6003C46.979 21.6003 47.5725 21.0069 47.5725 20.2748C47.5725 19.5427 46.979 18.9492 46.2469 18.9492C45.5149 18.9492 44.9214 19.5427 44.9214 20.2748C44.9214 21.0069 45.5149 21.6003 46.2469 21.6003Z" stroke="#120071" stroke-width="0.769171" stroke-linecap="round" stroke-linejoin="round"/>
</g>
<g id="person 1">
<path id="vector_6" d="M95.1999 74.1773C97.1852 70.2527 100.116 61.3741 100.336 60.5468C100.566 59.6942 100.526 59.5618 100.147 59.372C99.7682 59.1822 96.2438 57.2682 94.29 56.2824C92.3361 55.2967 88.439 52.7328 88.439 52.7328C85.892 55.1617 83.6741 57.9132 81.8412 60.9172C80.4758 56.7967 77.7666 49.2544 71.9523 45.4753C70.362 44.4421 66.9304 43.3882 61.9458 44.2775C61.9458 44.2775 62.4753 46.6753 59.6252 47.6756C56.7752 48.6759 54.167 45.2518 54.167 45.2518C50.1799 46.1785 46.6668 48.5256 44.2843 51.8543C43.2928 50.1605 42.1915 48.5335 40.9873 46.9837C40.9873 46.9837 38.2199 48.6391 35.581 49.882C33.243 50.8341 30.8236 51.5731 28.3525 52.09C29.46 60.1557 33.2391 72.8303 33.7312 74.1773H95.1999Z" stroke="#120071" stroke-width="0.769171" stroke-linecap="round" stroke-linejoin="round"/>
<path id="vector_7" d="M44.2847 51.8542C46.3365 55.3694 50.2971 63.3953 50.2971 63.3953" stroke="#120071" stroke-width="0.769171" stroke-linecap="round" stroke-linejoin="round"/>
<path id="vector_8" d="M81.8414 60.917C80.4416 63.4273 79.8699 64.6196 79.8699 64.6196" stroke="#120071" stroke-width="0.769171" stroke-linecap="round" stroke-linejoin="round"/>
<path id="vector_9" d="M73.0815 57.9004C74.3219 63.2578 75.1754 68.6975 75.6354 74.1773" stroke="#120071" stroke-width="0.769171" stroke-linecap="round" stroke-linejoin="round"/>
<path id="vector_10" d="M106.414 50.8648C104.885 50.8476 103.384 51.268 102.086 52.0763C103.643 51.1168 105.112 50.0206 106.475 48.8007C107.023 48.3668 107.434 47.7193 107.01 47.1652C106.085 46.1451 102.047 48.8819 101.124 49.4957C102.66 48.4052 104.108 47.1953 105.453 45.8772C105.895 45.5162 106.215 45.0285 106.371 44.4797C106.401 44.3769 106.41 44.2691 106.397 44.1629C106.383 44.0566 106.348 43.9542 106.294 43.862C106.24 43.7697 106.167 43.6896 106.081 43.6265C105.994 43.5632 105.895 43.5185 105.791 43.4947C105.416 43.467 105.04 43.5208 104.688 43.6522C104.335 43.7837 104.016 43.9897 103.75 44.2562C102.278 45.3732 100.836 46.5275 99.4223 47.7193C103.643 44.0458 104.174 43.7664 104.174 42.9116C104.18 42.8049 104.16 42.6983 104.117 42.6006C104.074 42.5029 104.008 42.4167 103.925 42.3491C103.733 42.2421 103.506 42.2128 103.292 42.2672C102.382 42.4583 101.518 42.828 100.752 43.3547C98.6378 44.6591 96.6985 46.2257 94.978 48.0171C95.2076 46.4688 96.1398 45.0078 96.0809 43.4305C96.0923 43.2151 96.0311 43.002 95.9079 42.8251C95.7847 42.7062 95.6255 42.6318 95.4548 42.6135C95.2849 42.5952 95.1127 42.6341 94.9673 42.7241C94.6803 42.9122 94.44 43.1632 94.2647 43.458C90.8583 48.314 91.4989 47.9734 89.1233 53.1776C93.4038 55.9397 93.2193 55.6764 99.5317 59.0477C100.012 58.0612 100.641 56.8076 101.015 56.0116C101.079 55.835 101.183 55.6757 101.32 55.5465C101.457 55.4174 101.621 55.3219 101.801 55.2677C103.662 54.4565 105.677 53.7088 106.929 52.1131C107.439 51.484 107.308 50.913 106.414 50.8648Z" stroke="#120071" stroke-width="0.769171" stroke-linecap="round" stroke-linejoin="round"/>
<path id="vector_11" d="M29.6967 51.7793C33.8624 50.7622 35.8614 49.9946 40.7695 47.1109C39.2694 41.7406 39.7998 42.1363 37.2291 36.9244C37.1 36.6064 36.9007 36.3217 36.6459 36.0917C36.5155 35.9807 36.352 35.9161 36.181 35.908C36.0098 35.9 35.8409 35.949 35.7007 36.0473C35.551 36.2037 35.4566 36.4047 35.4321 36.6198C35.1328 38.178 35.8323 39.7576 35.8216 41.3189C34.3955 39.2858 32.7173 37.4417 30.8271 35.8307C30.1522 35.1919 29.3569 34.6938 28.4875 34.3651C28.2846 34.2787 28.0562 34.2733 27.8492 34.3498C27.7568 34.4041 27.6783 34.4795 27.6205 34.5698C27.5626 34.6601 27.527 34.7628 27.5163 34.8695C27.3832 35.7297 27.9587 36.1759 31.4792 40.3469C30.2634 38.9617 29.0133 37.6028 27.7291 36.27C27.5065 35.9667 27.2212 35.7148 26.8927 35.5314C26.5642 35.348 26.2 35.2374 25.825 35.207C25.7183 35.214 25.614 35.2427 25.5188 35.2915C25.4236 35.3402 25.3394 35.408 25.2712 35.4905C25.2031 35.573 25.1526 35.6686 25.1228 35.7713C25.093 35.8741 25.0846 35.9818 25.0979 36.0879C25.1711 36.6539 25.4137 37.1844 25.7936 37.6101C26.9192 39.1145 28.1613 40.5282 29.5085 41.8378C28.584 40.9883 25.1155 37.7754 24.0517 38.6357C23.5458 39.1178 23.8542 39.8234 24.3303 40.3354C25.4917 41.7466 26.7753 43.0524 28.1661 44.2378C27.0055 43.247 25.5875 42.6059 24.077 42.3888C23.1869 42.3016 22.9711 42.8327 23.3736 43.5506C24.3685 45.3215 26.2459 46.3654 27.9617 47.4537C28.1319 47.5325 28.2808 47.6506 28.3962 47.7984C28.5116 47.9461 28.5901 48.1192 28.6253 48.3032C28.8901 49.2124 29.3699 50.7041 29.6967 51.7793Z" stroke="#120071" stroke-width="0.769171" stroke-linecap="round" stroke-linejoin="round"/>
<path id="vector_12" d="M34.9241 46.5067C35.3603 44.4159 35.8249 41.3186 35.8249 41.3186" stroke="#120071" stroke-width="0.769171" stroke-linecap="round" stroke-linejoin="round"/>
<path id="vector_13" d="M95.05 53.4075C94.9926 51.3327 94.9773 48.0173 94.9773 48.0173" stroke="#120071" stroke-width="0.769171" stroke-linecap="round" stroke-linejoin="round"/>
<path id="vector_14" d="M33.6038 53.5963C33.6038 53.3712 33.537 53.1512 33.4119 52.964C33.2869 52.7768 33.1091 52.631 32.9012 52.5449C32.6933 52.4588 32.4644 52.4362 32.2437 52.4801C32.0229 52.5241 31.8201 52.6324 31.661 52.7915C31.5018 52.9507 31.3934 53.1535 31.3495 53.3742C31.3056 53.595 31.3282 53.8239 31.4143 54.0318C31.5004 54.2398 31.6463 54.4175 31.8334 54.5425C32.0206 54.6676 32.2407 54.7343 32.4657 54.7343C32.7675 54.7343 33.057 54.6145 33.2704 54.401C33.4838 54.1876 33.6038 53.8981 33.6038 53.5963Z" fill="#6153BD"/>
<path id="vector_15" d="M40.572 56.9616C40.5721 56.7364 40.5055 56.5163 40.3805 56.3291C40.2556 56.1418 40.0779 55.9959 39.87 55.9096C39.6621 55.8234 39.4332 55.8007 39.2124 55.8445C38.9916 55.8883 38.7887 55.9966 38.6295 56.1558C38.4703 56.3149 38.3618 56.5177 38.3178 56.7385C38.2738 56.9593 38.2963 57.1881 38.3824 57.3961C38.4685 57.6041 38.6144 57.7819 38.8016 57.907C38.9888 58.032 39.2088 58.0988 39.4339 58.0988C39.5834 58.0989 39.7313 58.0696 39.8694 58.0125C40.0075 57.9553 40.1329 57.8716 40.2386 57.766C40.3443 57.6604 40.4282 57.5349 40.4853 57.397C40.5426 57.2589 40.572 57.111 40.572 56.9616Z" fill="#6153BD"/>
<path id="vector_16" d="M35.4474 69.5549C35.2223 69.5548 35.0022 69.6214 34.8149 69.7463C34.6277 69.8713 34.4817 70.0489 34.3954 70.2569C34.3092 70.4648 34.2865 70.6937 34.3304 70.9145C34.3742 71.1353 34.4825 71.3381 34.6416 71.4974C34.8008 71.6566 35.0036 71.7651 35.2244 71.809C35.4451 71.853 35.674 71.8305 35.8819 71.7445C36.0899 71.6584 36.2677 71.5125 36.3929 71.3253C36.5179 71.1382 36.5846 70.9181 36.5846 70.693C36.5848 70.5435 36.5554 70.3956 36.4983 70.2575C36.4412 70.1194 36.3574 69.994 36.2518 69.8883C36.1462 69.7826 36.0208 69.6987 35.8828 69.6416C35.7448 69.5843 35.5968 69.5549 35.4474 69.5549Z" fill="#6153BD"/>
<path id="vector_17" d="M46.1167 59.3914C45.8918 59.3914 45.6719 59.458 45.4849 59.583C45.2979 59.708 45.1521 59.8856 45.0661 60.0934C44.98 60.3013 44.9575 60.5299 45.0013 60.7505C45.0452 60.9711 45.1536 61.1737 45.3126 61.3328C45.4716 61.4919 45.6743 61.6002 45.8948 61.644C46.1155 61.6879 46.3442 61.6654 46.552 61.5793C46.7597 61.4932 46.9374 61.3475 47.0623 61.1605C47.1873 60.9734 47.254 60.7536 47.254 60.5286C47.2541 60.3792 47.2248 60.2313 47.1677 60.0933C47.1106 59.9552 47.0268 59.8299 46.9211 59.7242C46.8155 59.6186 46.6901 59.5349 46.5521 59.4777C46.414 59.4206 46.2661 59.3913 46.1167 59.3914Z" fill="#6153BD"/>
<path id="vector_18" d="M55.8656 70.8779C55.6408 70.8779 55.4211 70.9445 55.2341 71.0693C55.0472 71.1941 54.9014 71.3715 54.8152 71.5791C54.7291 71.7867 54.7062 72.0151 54.7499 72.2356C54.7934 72.4562 54.9013 72.6588 55.0601 72.818C55.2187 72.9772 55.421 73.0858 55.6413 73.1301C55.8617 73.1744 56.0903 73.1525 56.2981 73.067C56.506 72.9815 56.6838 72.8363 56.8093 72.6498C56.9347 72.4633 57.0021 72.2438 57.0028 72.019C57.0034 71.8693 56.9744 71.7209 56.9176 71.5825C56.8606 71.444 56.777 71.3181 56.6713 71.2121C56.5656 71.1061 56.44 71.022 56.3018 70.9646C56.1635 70.9073 56.0153 70.8778 55.8656 70.8779Z" fill="#6153BD"/>
<path id="vector_19" d="M51.2083 55.8247C50.9834 55.8247 50.7635 55.8914 50.5765 56.0164C50.3895 56.1413 50.2437 56.319 50.1576 56.5268C50.0716 56.7346 50.049 56.9633 50.0929 57.1838C50.1368 57.4045 50.2451 57.6071 50.4042 57.7662C50.5632 57.9252 50.7659 58.0335 50.9864 58.0774C51.2071 58.1213 51.4358 58.0988 51.6435 58.0127C51.8513 57.9266 52.029 57.7809 52.1539 57.5938C52.2789 57.4068 52.3456 57.1869 52.3456 56.962C52.3456 56.6604 52.2258 56.3711 52.0125 56.1579C51.7992 55.9446 51.5099 55.8247 51.2083 55.8247Z" fill="#6153BD"/>
<path id="vector_20" d="M60.3333 61.589C60.9614 61.589 61.4706 61.0798 61.4706 60.4517C61.4706 59.8236 60.9614 59.3145 60.3333 59.3145C59.7052 59.3145 59.196 59.8236 59.196 60.4517C59.196 61.0798 59.7052 61.589 60.3333 61.589Z" fill="#6153BD"/>
<path id="vector_21" d="M63.4727 70.9537C64.1008 70.9537 64.61 70.4446 64.61 69.8165C64.61 69.1884 64.1008 68.6792 63.4727 68.6792C62.8446 68.6792 62.3354 69.1884 62.3354 69.8165C62.3354 70.4446 62.8446 70.9537 63.4727 70.9537Z" fill="#6153BD"/>
<path id="vector_22" d="M57.0111 52.0239C56.786 52.0239 56.566 52.0907 56.3788 52.2157C56.1917 52.3408 56.0458 52.5186 55.9597 52.7265C55.8736 52.9344 55.851 53.1633 55.8949 53.384C55.9388 53.6048 56.0472 53.8075 56.2064 53.9667C56.3655 54.1258 56.5683 54.2343 56.789 54.2781C57.0098 54.322 57.2387 54.2995 57.4466 54.2134C57.6545 54.1273 57.8323 53.9814 57.9573 53.7943C58.0824 53.6071 58.1491 53.387 58.1491 53.162C58.1491 52.8601 58.0293 52.5707 57.8158 52.3573C57.6024 52.1439 57.3129 52.0239 57.0111 52.0239Z" fill="#6153BD"/>
<path id="vector_23" d="M67.5216 46.268C67.7465 46.268 67.9665 46.2014 68.1535 46.0765C68.3406 45.9516 68.4864 45.774 68.5727 45.5662C68.6589 45.3584 68.6817 45.1298 68.638 44.9091C68.5943 44.6884 68.4862 44.4857 68.3274 44.3264C68.1685 44.1671 67.966 44.0585 67.7454 44.0142C67.5249 43.9699 67.2962 43.992 67.0882 44.0777C66.8802 44.1634 66.7022 44.3088 66.5768 44.4955C66.4514 44.6823 66.3842 44.902 66.3835 45.1269C66.3832 45.2766 66.4123 45.4249 66.4693 45.5634C66.5263 45.7018 66.6101 45.8277 66.7158 45.9337C66.8215 46.0397 66.9471 46.1238 67.0854 46.1811C67.2236 46.2385 67.3719 46.268 67.5216 46.268Z" fill="#6153BD"/>
<path id="vector_24" d="M77.577 54.5607C77.802 54.5607 78.0216 54.494 78.2084 54.3691C78.3959 54.2442 78.5413 54.0667 78.6278 53.859C78.7135 53.6512 78.7364 53.4226 78.6928 53.2021C78.6484 52.9815 78.5405 52.7789 78.3813 52.6198C78.2229 52.4607 78.0201 52.3523 77.7997 52.3082C77.5793 52.2641 77.3504 52.2864 77.143 52.3723C76.9349 52.4581 76.7572 52.6037 76.6321 52.7905C76.507 52.9773 76.44 53.197 76.4397 53.4219C76.4394 53.5714 76.4686 53.7195 76.5256 53.8577C76.5827 53.9959 76.6664 54.1215 76.772 54.2273C76.8777 54.3331 77.003 54.417 77.1415 54.4742C77.2793 54.5314 77.4277 54.5608 77.577 54.5607Z" fill="#6153BD"/>
<path id="vector_25" d="M80.2534 70.6926C80.0284 70.6926 79.8087 70.7593 79.6212 70.8843C79.4345 71.0092 79.2891 71.1869 79.2026 71.3947C79.1169 71.6025 79.0939 71.8311 79.1383 72.0518C79.1819 72.2724 79.2899 72.475 79.449 72.6341C79.6082 72.7931 79.811 72.9014 80.0315 72.9453C80.2519 72.9892 80.4807 72.9666 80.6889 72.8806C80.8963 72.7945 81.0738 72.6487 81.1993 72.4618C81.3241 72.2747 81.3907 72.0548 81.3907 71.8299C81.3907 71.5283 81.2705 71.239 81.0578 71.0257C80.8442 70.8125 80.5549 70.6926 80.2534 70.6926Z" fill="#6153BD"/>
<path id="vector_26" d="M77.8295 62.9115C77.8295 62.6865 77.7629 62.4666 77.6382 62.2796C77.5127 62.0926 77.3351 61.9468 77.1277 61.8608C76.9195 61.7747 76.6909 61.7522 76.4704 61.796C76.2497 61.8399 76.0471 61.9482 75.888 62.1073C75.729 62.2663 75.6207 62.469 75.5768 62.6896C75.5329 62.9102 75.5554 63.1389 75.6415 63.3466C75.7276 63.5545 75.8733 63.732 76.0604 63.857C76.2474 63.982 76.4673 64.0487 76.6922 64.0487C76.8416 64.0488 76.9892 64.0194 77.1277 63.9623C77.2655 63.9052 77.391 63.8214 77.4966 63.7158C77.6022 63.6102 77.6856 63.4848 77.743 63.3468C77.8004 63.2087 77.8295 63.0608 77.8295 62.9115Z" fill="#6153BD"/>
<path id="vector_27" d="M84.4673 65.1213C84.2423 65.1212 84.0219 65.1878 83.8344 65.3128C83.6477 65.4378 83.5015 65.6155 83.415 65.8235C83.3293 66.0315 83.3063 66.2604 83.3499 66.4812C83.3943 66.702 83.5022 66.9049 83.6614 67.0641C83.8214 67.2233 84.0242 67.3317 84.2446 67.3756C84.4658 67.4195 84.6946 67.3969 84.902 67.3106C85.1102 67.2244 85.2877 67.0784 85.4133 66.8912C85.538 66.7039 85.6046 66.4838 85.6046 66.2586C85.6046 66.1093 85.5755 65.9614 85.5181 65.8234C85.4607 65.6854 85.3773 65.56 85.2717 65.4544C85.1661 65.3489 85.0405 65.2651 84.9028 65.2079C84.7643 65.1507 84.6166 65.1213 84.4673 65.1213Z" fill="#6153BD"/>
<path id="vector_28" d="M91.5152 64.3887C91.2902 64.3885 91.0697 64.4551 90.883 64.5801C90.6955 64.7051 90.5493 64.8827 90.4628 65.0906C90.3771 65.2986 90.3542 65.5274 90.3978 65.7483C90.4422 65.9691 90.5501 66.1719 90.7093 66.3311C90.8685 66.4903 91.0713 66.5989 91.2917 66.6428C91.5129 66.6868 91.7417 66.6643 91.9499 66.5782C92.158 66.4921 92.3356 66.3462 92.4603 66.159C92.5859 65.9719 92.6524 65.7518 92.6524 65.5267C92.6524 65.3772 92.6234 65.2293 92.566 65.0912C92.5086 64.9532 92.4251 64.8277 92.3195 64.722C92.2139 64.6164 92.0884 64.5325 91.9506 64.4753C91.8121 64.4181 91.6644 64.3887 91.5152 64.3887Z" fill="#6153BD"/>
<path id="vector_29" d="M98.106 62.8499C97.881 62.8497 97.6606 62.9164 97.4738 63.0413C97.2863 63.1662 97.1401 63.3439 97.0537 63.5519C96.9679 63.7598 96.945 63.9887 96.9886 64.2095C97.033 64.4302 97.1409 64.6331 97.3001 64.7923C97.4593 64.9516 97.6621 65.06 97.8833 65.104C98.1037 65.148 98.3325 65.1255 98.5407 65.0394C98.7489 64.9533 98.9264 64.8074 99.0512 64.6203C99.1767 64.4331 99.2433 64.213 99.2433 63.9879C99.2433 63.8385 99.2142 63.6906 99.1568 63.5525C99.1001 63.4144 99.016 63.2889 98.9103 63.1832C98.8047 63.0775 98.6792 62.9937 98.5415 62.9365C98.4037 62.8793 98.2552 62.8499 98.106 62.8499Z" fill="#6153BD"/>
<path id="vector_30" d="M86.5259 60.0058C87.1543 60.0058 87.6632 59.4965 87.6632 58.8685C87.6632 58.2404 87.1543 57.7312 86.5259 57.7312C85.8976 57.7312 85.3887 58.2404 85.3887 58.8685C85.3887 59.4965 85.8976 60.0058 86.5259 60.0058Z" fill="#6153BD"/>
<path id="vector_31" d="M95.3775 59.1967C96.0058 59.1967 96.5148 58.6875 96.5148 58.0594C96.5148 57.4313 96.0058 56.9221 95.3775 56.9221C94.7492 56.9221 94.2402 57.4313 94.2402 58.0594C94.2402 58.6875 94.7492 59.1967 95.3775 59.1967Z" fill="#6153BD"/>
<path id="vector_32" d="M91.2203 73.0746C91.8486 73.0746 92.3576 72.5654 92.3576 71.9373C92.3576 71.3092 91.8486 70.8 91.2203 70.8C90.592 70.8 90.083 71.3092 90.083 71.9373C90.083 72.5654 90.592 73.0746 91.2203 73.0746Z" fill="#6153BD"/>
<path id="vector_33" d="M63.9297 50.276C63.9298 50.0509 63.8632 49.8307 63.7382 49.6434C63.6131 49.4562 63.4354 49.3102 63.2275 49.224C63.0195 49.1378 62.7906 49.1151 62.5698 49.1591C62.349 49.2029 62.1461 49.3114 61.9869 49.4705C61.8277 49.6297 61.7193 49.8326 61.6754 50.0534C61.6315 50.2742 61.6541 50.5031 61.7403 50.7111C61.8266 50.9191 61.9726 51.0968 62.1598 51.2218C62.3471 51.3468 62.5673 51.4135 62.7924 51.4133C63.094 51.4133 63.3832 51.2935 63.5965 51.0802C63.8098 50.8669 63.9297 50.5777 63.9297 50.276Z" fill="#6153BD"/>
<path id="vector_34" d="M70.3959 49.552C70.1708 49.5518 69.9506 49.6185 69.7634 49.7435C69.5761 49.8685 69.4301 50.0463 69.3439 50.2542C69.2576 50.4622 69.235 50.691 69.2789 50.9119C69.3228 51.1327 69.4312 51.3356 69.5904 51.4948C69.7496 51.654 69.9525 51.7624 70.1733 51.8063C70.3942 51.8502 70.623 51.8275 70.831 51.7414C71.0389 51.6551 71.2167 51.5091 71.3417 51.3218C71.4667 51.1346 71.5333 50.9144 71.5332 50.6893C71.533 50.3877 71.4131 50.0986 71.1998 49.8854C70.9866 49.6722 70.6975 49.5522 70.3959 49.552Z" fill="#6153BD"/>
<path id="vector_35" d="M69.407 64.1262C69.1821 64.1262 68.9622 64.193 68.7752 64.3179C68.5882 64.4428 68.4424 64.6205 68.3563 64.8283C68.2703 65.0361 68.2477 65.2648 68.2916 65.4854C68.3355 65.706 68.4438 65.9086 68.6029 66.0677C68.7619 66.2267 68.9646 66.335 69.1852 66.379C69.4058 66.4228 69.6345 66.4003 69.8423 66.3142C70.0501 66.2281 70.2277 66.0824 70.3527 65.8953C70.4776 65.7083 70.5443 65.4884 70.5443 65.2635C70.5445 65.1141 70.5151 64.9662 70.458 64.8282C70.4008 64.6901 70.3171 64.5648 70.2115 64.4591C70.1059 64.3534 69.9804 64.2697 69.8424 64.2126C69.7044 64.1555 69.5564 64.1261 69.407 64.1262Z" fill="#6153BD"/>
<path id="vector_36" d="M73.4978 70.8779C73.2731 70.8781 73.0535 70.9448 72.8666 71.0697C72.6798 71.1945 72.5341 71.372 72.448 71.5797C72.362 71.7872 72.3393 72.0157 72.383 72.2362C72.4267 72.4566 72.5347 72.6592 72.6933 72.8183C72.852 72.9774 73.0543 73.086 73.2746 73.1302C73.495 73.1744 73.7235 73.1524 73.9314 73.0669C74.1392 72.9814 74.317 72.8362 74.4424 72.6497C74.5678 72.4632 74.6351 72.2437 74.6359 72.019C74.6364 71.8693 74.6073 71.7209 74.5503 71.5824C74.4933 71.444 74.4096 71.3181 74.3039 71.2121C74.1981 71.1061 74.0725 71.022 73.9341 70.9646C73.7958 70.9072 73.6476 70.8778 73.4978 70.8779Z" fill="#6153BD"/>
<path id="vector_37" d="M66.7735 55.9644C66.5485 55.9645 66.3287 56.0314 66.1419 56.1564C65.9549 56.2815 65.8092 56.4591 65.7233 56.667C65.6374 56.8748 65.6149 57.1035 65.6589 57.324C65.7029 57.5445 65.8112 57.7471 65.9703 57.9061C66.1294 58.0651 66.332 58.1733 66.5527 58.2172C66.7732 58.2609 67.0018 58.2384 67.2096 58.1523C67.4174 58.0662 67.595 57.9204 67.7199 57.7334C67.8449 57.5464 67.9115 57.3266 67.9115 57.1016C67.9115 56.9522 67.882 56.8043 67.8249 56.6662C67.7676 56.5282 67.6838 56.4028 67.5781 56.2972C67.4724 56.1916 67.347 56.1079 67.2089 56.0508C67.0709 55.9937 66.9229 55.9643 66.7735 55.9644Z" fill="#6153BD"/>
<path id="vector_38" d="M49.0511 68.8453C49.6792 68.8453 50.1884 68.3362 50.1884 67.7081C50.1884 67.08 49.6792 66.5708 49.0511 66.5708C48.423 66.5708 47.9138 67.08 47.9138 67.7081C47.9138 68.3362 48.423 68.8453 49.0511 68.8453Z" fill="#6153BD"/>
<path id="vector_39" d="M51.2084 47.7961C50.9833 47.796 50.7632 47.8626 50.5759 47.9875C50.3887 48.1125 50.2427 48.2902 50.1564 48.4982C50.0702 48.706 50.0475 48.9349 50.0914 49.1557C50.1351 49.3765 50.2435 49.5793 50.4026 49.7386C50.5617 49.8979 50.7646 50.0063 50.9853 50.0503C51.2061 50.0943 51.435 50.0718 51.6429 49.9857C51.8509 49.8996 52.0287 49.7537 52.1538 49.5665C52.2789 49.3794 52.3456 49.1593 52.3456 48.9342C52.3458 48.7848 52.3164 48.6368 52.2593 48.4987C52.2022 48.3606 52.1184 48.2352 52.0128 48.1295C51.9072 48.0238 51.7818 47.9399 51.6438 47.8828C51.5058 47.8256 51.3578 47.7961 51.2084 47.7961Z" fill="#6153BD"/>
<path id="vector_40" d="M55.7943 66.2539C56.0194 66.2539 56.2394 66.1871 56.4265 66.0621C56.6137 65.937 56.7595 65.7593 56.8457 65.5513C56.9318 65.3434 56.9544 65.1145 56.9104 64.8938C56.8665 64.673 56.7581 64.4703 56.599 64.3111C56.4398 64.1519 56.237 64.0435 56.0163 63.9996C55.7955 63.9558 55.5667 63.9783 55.3587 64.0644C55.1508 64.1505 54.9731 64.2964 54.848 64.4835C54.723 64.6707 54.6562 64.8908 54.6562 65.1158C54.6562 65.4176 54.7762 65.7071 54.9896 65.9205C55.203 66.134 55.4924 66.2539 55.7943 66.2539Z" fill="#6153BD"/>
<path id="vector_41" d="M39.9971 63.248C39.7722 63.248 39.5523 63.3148 39.3653 63.4398C39.1783 63.5647 39.0325 63.7423 38.9464 63.9502C38.8603 64.1579 38.8378 64.3866 38.8817 64.6072C38.9256 64.8278 39.0339 65.0305 39.193 65.1895C39.352 65.3486 39.5547 65.4569 39.7752 65.5008C39.9959 65.5446 40.2245 65.5221 40.4323 65.436C40.6401 65.35 40.8177 65.2042 40.9427 65.0172C41.0677 64.8301 41.1344 64.6102 41.1344 64.3853C41.1344 64.236 41.105 64.0881 41.0478 63.9502C40.9907 63.8122 40.9069 63.6868 40.8013 63.5812C40.6957 63.4756 40.5703 63.3918 40.4323 63.3347C40.2943 63.2775 40.1465 63.248 39.9971 63.248Z" fill="#6153BD"/>
<path id="vector_42" d="M43.6449 70.8779C43.4201 70.8779 43.2004 70.9445 43.0134 71.0693C42.8264 71.1941 42.6807 71.3715 42.5945 71.5791C42.5083 71.7867 42.4856 72.0151 42.5292 72.2356C42.5727 72.4562 42.6806 72.6588 42.8393 72.818C42.998 72.9772 43.2003 73.0858 43.4206 73.1301C43.641 73.1744 43.8695 73.1525 44.0774 73.067C44.2853 72.9815 44.4632 72.8363 44.5886 72.6498C44.714 72.4633 44.7814 72.2438 44.7821 72.019C44.7827 71.8693 44.7538 71.7209 44.6968 71.5825C44.6399 71.444 44.5563 71.3181 44.4506 71.2121C44.3449 71.1061 44.2193 71.022 44.081 70.9646C43.9428 70.9073 43.7946 70.8778 43.6449 70.8779Z" fill="#6153BD"/>
<path id="vector_43" d="M40.5599 48.6768C40.3348 48.6766 40.1147 48.7432 39.9275 48.8682C39.7402 48.9931 39.5942 49.1709 39.508 49.3788C39.4217 49.5867 39.3991 49.8156 39.4429 50.0364C39.4867 50.2572 39.5951 50.46 39.7542 50.6192C39.9133 50.7785 40.1161 50.8869 40.3368 50.9309C40.5576 50.9749 40.7865 50.9524 40.9945 50.8663C41.2025 50.7802 41.3803 50.6343 41.5053 50.4471C41.6305 50.26 41.6972 50.0399 41.6972 49.8148C41.6973 49.6654 41.668 49.5174 41.6109 49.3793C41.5538 49.2413 41.47 49.1158 41.3644 49.0101C41.2587 48.9044 41.1334 48.8206 40.9953 48.7634C40.8573 48.7062 40.7093 48.6768 40.5599 48.6768Z" fill="#6153BD"/>
<path id="vector_44" d="M33.1512 60.7227C32.9261 60.7225 32.706 60.7891 32.5187 60.9141C32.3314 61.0391 32.1855 61.2168 32.0992 61.4248C32.013 61.6328 31.9904 61.8617 32.0343 62.0825C32.0782 62.3034 32.1865 62.5062 32.3458 62.6654C32.505 62.8245 32.7078 62.933 32.9287 62.9768C33.1495 63.0208 33.3784 62.9981 33.5863 62.9119C33.7943 62.8257 33.972 62.6797 34.097 62.4925C34.2221 62.3052 34.2887 62.085 34.2885 61.8599C34.2885 61.5582 34.1687 61.269 33.9554 61.0557C33.7421 60.8424 33.4528 60.7227 33.1512 60.7227Z" fill="#6153BD"/>
<path id="vector_45" d="M59.7242 39.1016C62.2689 39.8669 61.9834 35.6002 61.9834 35.6002C61.7393 32.7976 60.5086 29.1998 57.4596 30.2338C56.6241 30.5051 55.9193 31.0775 55.4822 31.8396C55.0451 32.6017 54.907 33.4991 55.0947 34.3573C54.8943 34.3733 54.7012 34.4401 54.5336 34.5512C54.366 34.6624 54.2293 34.8143 54.1366 34.9928C54.0438 35.1712 53.998 35.3703 54.0034 35.5714C54.0087 35.7724 54.065 35.9688 54.1671 36.1421C54.735 37.6153 55.5922 37.5702 55.8845 37.1768C55.9144 37.1362 55.9611 37.124 55.984 37.2036C56.2572 38.122 57.7014 43.5366 54.1671 45.2517C54.1671 45.2517 56.7761 48.6766 59.6254 47.6755C62.4747 46.6745 61.9459 44.2775 61.9459 44.2775C61.9459 44.2775 59.5627 43.3606 59.7242 39.1016Z" fill="#FECFC4"/>
<path id="vector_46" d="M59.7242 39.1016C62.2689 39.8669 61.9834 35.6002 61.9834 35.6002C61.7393 32.7976 60.5086 29.1998 57.4596 30.2338C56.6241 30.5051 55.9193 31.0775 55.4822 31.8396C55.0451 32.6017 54.907 33.4991 55.0947 34.3573C54.8943 34.3733 54.7012 34.4401 54.5336 34.5512C54.366 34.6624 54.2293 34.8143 54.1366 34.9928C54.0438 35.1712 53.998 35.3703 54.0034 35.5714C54.0087 35.7724 54.065 35.9688 54.1671 36.1421C54.735 37.6153 55.5922 37.5702 55.8845 37.1768C55.9144 37.1362 55.9611 37.124 55.984 37.2036C56.2572 38.122 57.7014 43.5366 54.1671 45.2517C54.1671 45.2517 56.7761 48.6766 59.6254 47.6755C62.4747 46.6745 61.9459 44.2775 61.9459 44.2775C61.9459 44.2775 59.5627 43.3606 59.7242 39.1016Z" stroke="#120071" stroke-width="0.769171" stroke-linecap="round" stroke-linejoin="round"/>
<path id="vector_47" d="M65.7434 27.6485C66.2201 27.0784 66.4784 26.3573 66.4722 25.6142C66.4661 24.8711 66.1958 24.1544 65.7097 23.5923H48.2733C48.1156 23.6548 47.9622 23.7277 47.8142 23.8104C47.5582 23.9675 47.3357 24.1735 47.1593 24.4167C46.9831 24.6598 46.8563 24.9353 46.7865 25.2273C46.7166 25.5195 46.705 25.8224 46.7522 26.119C46.7995 26.4156 46.9046 26.7 47.0618 26.9559C46.469 27.061 45.9191 27.3348 45.478 27.7445C45.0369 28.1542 44.7232 28.6823 44.5745 29.2656C44.4542 29.8546 44.548 30.4673 44.839 30.9934C45.1299 31.5194 45.5989 31.9245 46.1618 32.1356C45.6765 32.4832 45.3116 32.9734 45.1178 33.538C44.924 34.1026 44.9109 34.7135 45.0803 35.2859C45.2498 35.8583 45.5933 36.3636 46.0632 36.7318C46.5332 37.0998 47.1061 37.3124 47.7024 37.3398C47.5199 37.855 47.5081 38.4153 47.6687 38.9377C47.8294 39.4602 48.154 39.917 48.5946 40.2406C49.035 40.5641 49.568 40.7373 50.1146 40.7343C50.6612 40.7314 51.1923 40.5526 51.6293 40.2243C51.9515 41.2728 53.2043 41.6823 54.2919 41.82C55.0262 41.9858 55.7956 41.8857 56.4631 41.5376C56.564 40.0763 56.4012 38.6088 55.9825 37.2051C55.9595 37.1286 55.9128 37.1385 55.883 37.1783C55.5906 37.5717 54.735 37.6169 54.1656 36.1436C54.0635 35.9703 54.0071 35.774 54.0017 35.5729C53.9964 35.3719 54.0422 35.1728 54.135 34.9943C54.2277 34.8159 54.3643 34.6639 54.5319 34.5528C54.6996 34.4416 54.8926 34.3749 55.0932 34.3589C54.9047 33.5 55.0426 32.6018 55.48 31.839C55.9174 31.0762 56.623 30.5034 57.4595 30.2322C60.5086 29.1983 61.7392 32.7961 61.9834 35.5987C61.9979 35.8672 61.9979 36.1362 61.9834 36.4046C62.9321 36.3904 63.8384 36.0098 64.5128 35.3423C64.8377 34.9938 65.0275 34.5408 65.0482 34.0647C65.0688 33.5887 64.9189 33.1209 64.6253 32.7456C65.2201 32.7199 65.7898 32.4981 66.2455 32.115C66.7013 31.7319 67.0176 31.2088 67.1452 30.6272C67.2728 30.0456 67.2044 29.4381 66.9509 28.8994C66.6974 28.3607 66.2729 27.9209 65.7434 27.6485Z" fill="#6153BD"/>
<path id="vector_48" d="M65.7434 27.6485C66.2201 27.0784 66.4784 26.3573 66.4722 25.6142C66.4661 24.8711 66.1958 24.1544 65.7097 23.5923H48.2733C48.1156 23.6548 47.9622 23.7277 47.8142 23.8104C47.5582 23.9675 47.3357 24.1735 47.1593 24.4167C46.9831 24.6598 46.8563 24.9353 46.7865 25.2273C46.7166 25.5195 46.705 25.8224 46.7522 26.119C46.7995 26.4156 46.9046 26.7 47.0618 26.9559C46.469 27.061 45.9191 27.3348 45.478 27.7445C45.0369 28.1542 44.7232 28.6823 44.5745 29.2656C44.4542 29.8546 44.548 30.4673 44.839 30.9934C45.1299 31.5194 45.5989 31.9245 46.1618 32.1356C45.6765 32.4832 45.3116 32.9734 45.1178 33.538C44.924 34.1026 44.9109 34.7135 45.0803 35.2859C45.2498 35.8583 45.5933 36.3636 46.0632 36.7318C46.5332 37.0998 47.1061 37.3124 47.7024 37.3398C47.5199 37.855 47.5081 38.4153 47.6687 38.9377C47.8294 39.4602 48.154 39.917 48.5946 40.2406C49.035 40.5641 49.568 40.7373 50.1146 40.7343C50.6612 40.7314 51.1923 40.5526 51.6293 40.2243C51.9515 41.2728 53.2043 41.6823 54.2919 41.82C55.0262 41.9858 55.7956 41.8857 56.4631 41.5376C56.564 40.0763 56.4012 38.6088 55.9825 37.2051C55.9595 37.1286 55.9128 37.1385 55.883 37.1783C55.5906 37.5717 54.735 37.6169 54.1656 36.1436C54.0635 35.9703 54.0071 35.774 54.0017 35.5729C53.9964 35.3719 54.0422 35.1728 54.135 34.9943C54.2277 34.8159 54.3643 34.6639 54.5319 34.5528C54.6996 34.4416 54.8926 34.3749 55.0932 34.3589C54.9047 33.5 55.0426 32.6018 55.48 31.839C55.9174 31.0762 56.623 30.5034 57.4595 30.2322C60.5086 29.1983 61.7392 32.7961 61.9834 35.5987C61.9979 35.8672 61.9979 36.1362 61.9834 36.4046C62.9321 36.3904 63.8384 36.0098 64.5128 35.3423C64.8377 34.9938 65.0275 34.5408 65.0482 34.0647C65.0688 33.5887 64.9189 33.1209 64.6253 32.7456C65.2201 32.7199 65.7898 32.4981 66.2455 32.115C66.7013 31.7319 67.0176 31.2088 67.1452 30.6272C67.2728 30.0456 67.2044 29.4381 66.9509 28.8994C66.6974 28.3607 66.2729 27.9209 65.7434 27.6485Z" stroke="#120071" stroke-width="0.769171" stroke-linecap="round" stroke-linejoin="round"/>
</g>
<g id="phone">
<path id="vector_49" d="M119.919 138.734V146.68C119.919 147.039 119.849 147.395 119.711 147.728C119.573 148.06 119.372 148.361 119.118 148.615C118.864 148.869 118.562 149.072 118.23 149.209C117.898 149.346 117.542 149.417 117.182 149.417H77.4529C76.7269 149.417 76.0305 149.129 75.5172 148.615C75.0038 148.102 74.7153 147.405 74.7153 146.68V135.312" stroke="#120071" stroke-width="0.769171" stroke-linecap="round" stroke-linejoin="round"/>
<path id="vector_50" d="M74.7131 114.017V80.6484C74.7132 80.2887 74.7842 79.9328 74.922 79.6007C75.0598 79.2678 75.2616 78.9662 75.516 78.7122C75.7705 78.4581 76.0725 78.2568 76.4049 78.119C76.7372 77.982 77.0932 77.9109 77.4529 77.9116H117.185C117.911 77.9116 118.607 78.2002 119.12 78.7129C119.633 79.2265 119.922 79.9221 119.922 80.6484V120.892" stroke="#120071" stroke-width="0.769171" stroke-linecap="round" stroke-linejoin="round"/>
<path id="vector_51" d="M119.919 84.8816H74.7131" stroke="#120071" stroke-width="0.769171" stroke-linecap="round" stroke-linejoin="round"/>
<path id="vector_52" d="M74.7131 140.71H119.919" stroke="#120071" stroke-width="0.769171" stroke-linecap="round" stroke-linejoin="round"/>
</g>
<g id="details">
<path id="vector_53" d="M24.7573 10.8652V16.6641" stroke="#120071" stroke-width="0.769171" stroke-linecap="round" stroke-linejoin="round"/>
<path id="vector_54" d="M22.6396 13.7649H26.8757" stroke="#120071" stroke-width="0.769171" stroke-linecap="round" stroke-linejoin="round"/>
<path id="vector_55" d="M127.036 65.6687V71.453" stroke="#120071" stroke-width="0.769171" stroke-linecap="round" stroke-linejoin="round"/>
<path id="vector_56" d="M124.916 68.5608H129.156" stroke="#120071" stroke-width="0.769171" stroke-linecap="round" stroke-linejoin="round"/>
<path id="vector_57" d="M60.6013 121.194V127.049" stroke="#120071" stroke-width="0.769171" stroke-linecap="round" stroke-linejoin="round"/>
<path id="vector_58" d="M58.447 124.122H62.7558" stroke="#120071" stroke-width="0.769171" stroke-linecap="round" stroke-linejoin="round"/>
</g>
<g id="chat bubble 2">
<path id="vector_59" d="M41.3937 65.4885C48.5824 65.4886 55.4792 68.3328 60.5781 73.4002C65.677 78.4677 68.564 85.3465 68.6087 92.5352L80.3435 99.6611L67.5319 100.299C66.1217 105.154 63.387 109.521 59.6342 112.91C55.8813 116.298 51.2589 118.574 46.2851 119.483C41.3112 120.391 36.1825 119.897 31.474 118.054C26.7655 116.212 22.6633 113.094 19.6273 109.051C16.5913 105.008 14.7415 100.198 14.2853 95.1633C13.8292 90.1275 14.7846 85.0641 17.0446 80.541C19.3046 76.0183 22.7797 72.2141 27.0805 69.5554C31.3812 66.8966 36.3375 65.4884 41.3937 65.4885Z" fill="#FECFC4"/>
<path id="vector_60" d="M41.3937 65.4885C48.5824 65.4886 55.4792 68.3328 60.5781 73.4002C65.677 78.4677 68.564 85.3465 68.6087 92.5352L80.3435 99.6611L67.5319 100.299C66.1217 105.154 63.387 109.521 59.6342 112.91C55.8813 116.298 51.2589 118.574 46.2851 119.483C41.3112 120.391 36.1825 119.897 31.474 118.054C26.7655 116.212 22.6633 113.094 19.6273 109.051C16.5913 105.008 14.7415 100.198 14.2853 95.1633C13.8292 90.1275 14.7846 85.0641 17.0446 80.541C19.3046 76.0183 22.7797 72.2141 27.0805 69.5554C31.3812 66.8966 36.3375 65.4884 41.3937 65.4885Z" stroke="#120071" stroke-width="0.769171" stroke-linecap="round" stroke-linejoin="round"/>
<path id="vector_61" d="M29.4448 85.4182H54.0753" stroke="#120071" stroke-width="0.769171" stroke-linecap="round" stroke-linejoin="round"/>
<path id="vector_62" d="M29.4448 91.0342H54.0753" stroke="#120071" stroke-width="0.769171" stroke-linecap="round" stroke-linejoin="round"/>
<path id="vector_63" d="M29.4448 96.6501H54.0753" stroke="#120071" stroke-width="0.769171" stroke-linecap="round" stroke-linejoin="round"/>
<path id="vector_64" d="M29.4448 102.265H54.0753" stroke="#120071" stroke-width="0.769171" stroke-linecap="round" stroke-linejoin="round"/>
</g>
<g id="person 2">
<path id="vector_65" d="M131.905 120.725C131.829 120.219 131.335 119.98 130.635 120.576C130.27 120.888 129.487 121.801 129.169 122.16C130.081 120.973 130.828 119.668 131.392 118.28C131.679 117.467 131.323 116.838 130.55 117.35C129.357 118.255 128.292 119.319 127.386 120.512C128.864 117.58 129.996 116.703 129.998 115.217C129.998 114.46 129.718 114.456 129.196 114.643C127.697 115.183 126.963 116.919 125.502 119.618C127.66 114.997 127.892 114.727 127.722 114.023C127.671 113.698 127.368 113.546 126.917 113.894C125.069 115.607 123.656 117.735 122.793 120.103C122.75 118.844 122.594 117.591 122.328 116.359C122.127 115.455 121.497 115.622 121.138 116.319C120.24 118.101 120.308 120.245 119.531 122.055L126.761 128.98C128.323 127.175 129.717 125.231 130.925 123.172C131.261 122.598 132.034 121.376 131.905 120.725Z" stroke="#120071" stroke-width="0.769171" stroke-linecap="round" stroke-linejoin="round"/>
<path id="vector_66" d="M77.4154 116.672C77.0006 114.809 77.4445 112.787 76.9118 110.938C76.8116 110.592 76.5468 110.179 76.197 110.272C75.9804 110.329 75.8649 110.557 75.7761 110.763C75.303 111.885 74.9307 113.046 74.6633 114.234C74.2806 112.067 73.2038 109.116 71.8553 107.597C71.4857 107.181 71.178 107.276 71.0655 107.574C70.7755 108.224 70.9721 108.597 72.1699 113.287C71.3571 110.734 70.9308 108.783 69.6374 107.954C68.9318 107.501 68.7573 107.762 68.6708 108.442C68.4963 109.813 69.3596 110.795 70.2244 113.799C69.5782 112.504 68.7581 111.303 67.7869 110.229C67.346 109.693 66.6634 109.933 66.8172 110.96C67.104 112.377 67.5802 113.75 68.233 115.041C67.9966 114.643 67.4149 113.636 67.1233 113.274C66.8815 112.973 66.4827 112.662 66.1491 112.856C65.4549 113.315 66.0595 114.795 66.384 115.687C67.0021 117.41 67.7438 119.086 68.6035 120.702C69.2563 120.38 76.8039 116.66 77.4154 116.672Z" stroke="#120071" stroke-width="0.769171" stroke-linecap="round" stroke-linejoin="round"/>
<path id="vector_67" d="M127.008 129.215L119.257 121.792C118.89 121.44 118.951 121.47 118.683 121.73C116.173 124.15 113.798 126.705 111.566 129.384C111.013 127.082 110.106 124.881 108.876 122.859C106.642 119.004 104.207 116.226 100.026 115.213C96.5365 116.514 95.7038 114.754 95.7038 114.754C88.8924 114.698 85.6995 115.615 82.4553 122.407C81.0731 120.533 79.5976 118.73 78.0332 117.005C77.9789 116.922 77.9077 116.85 77.8259 116.793C77.7432 116.737 77.6506 116.698 77.5526 116.678C77.4547 116.657 77.3536 116.656 77.2557 116.675C77.1577 116.694 77.0644 116.731 76.9809 116.786C74.0566 117.953 68.3159 120.837 68.3159 120.837C69.2213 123.782 70.3226 126.665 71.4966 129.512C72.7403 132.531 74.1699 135.711 77.1868 137.249C78.8644 138.106 80.8099 138.274 82.6084 137.716C84.4076 137.158 85.9176 135.92 86.8161 134.264C86.8651 136.015 87.0847 139.641 87.1498 140.701H115.82C121.046 139.149 124.655 134.755 127.03 129.792C127.153 129.551 127.247 129.444 127.008 129.215Z" fill="#FECFC4"/>
<path id="vector_68" d="M127.008 129.215L119.257 121.792C118.89 121.44 118.951 121.47 118.683 121.73C116.173 124.15 113.798 126.705 111.566 129.384C111.013 127.082 110.106 124.881 108.876 122.859C106.642 119.004 104.207 116.226 100.026 115.213C96.5365 116.514 95.7038 114.754 95.7038 114.754C88.8924 114.698 85.6995 115.615 82.4553 122.407C81.0731 120.533 79.5976 118.73 78.0332 117.005C77.9789 116.922 77.9077 116.85 77.8259 116.793C77.7432 116.737 77.6506 116.698 77.5526 116.678C77.4547 116.657 77.3536 116.656 77.2557 116.675C77.1577 116.694 77.0644 116.731 76.9809 116.786C74.0566 117.953 68.3159 120.837 68.3159 120.837C69.2213 123.782 70.3226 126.665 71.4966 129.512C72.7403 132.531 74.1699 135.711 77.1868 137.249C78.8644 138.106 80.8099 138.274 82.6084 137.716C84.4076 137.158 85.9176 135.92 86.8161 134.264C86.8651 136.015 87.0847 139.641 87.1498 140.701H115.82C121.046 139.149 124.655 134.755 127.03 129.792C127.153 129.551 127.247 129.444 127.008 129.215Z" stroke="#120071" stroke-width="0.769171" stroke-linecap="round" stroke-linejoin="round"/>
<path id="vector_69" d="M97.5764 103.117C97.5764 103.117 92.9362 106.697 94.0429 108.923C94.0429 108.923 94.522 110.082 96.7728 109.86C96.6978 111.541 96.3373 113.198 95.7075 114.758C95.7075 114.758 96.5401 116.518 100.03 115.217C100.03 115.217 98.054 111.767 98.6877 109.043C98.6899 109.033 98.6938 109.025 98.6991 109.017C98.7045 109.01 98.7114 109.004 98.719 108.998C98.7267 108.994 98.7359 108.991 98.7451 108.989C98.7542 108.988 98.7634 108.988 98.7726 108.99C98.9027 109.103 99.0565 109.186 99.2234 109.231C99.3895 109.276 99.564 109.283 99.7339 109.251C99.903 109.219 100.064 109.148 100.201 109.046C100.34 108.942 100.453 108.809 100.533 108.656C101.208 107.661 100.144 107.257 99.7882 107.169C99.7629 107.163 99.7407 107.147 99.7277 107.124C99.714 107.102 99.7101 107.075 99.7163 107.05C100.163 106.084 100.724 105.175 101.388 104.344C100.078 104.067 98.8009 103.656 97.5764 103.117Z" stroke="#120071" stroke-width="0.769171" stroke-linecap="round" stroke-linejoin="round"/>
<path id="vector_70" d="M86.9629 126.4C86.5481 128.813 86.8198 134.273 86.8198 134.273" stroke="#120071" stroke-width="0.769171" stroke-linecap="round" stroke-linejoin="round"/>
<path id="vector_71" d="M106.76 126.686C107.769 131.298 108.368 135.991 108.55 140.71" stroke="#120071" stroke-width="0.769171" stroke-linecap="round" stroke-linejoin="round"/>
<path id="vector_72" d="M97.5765 103.116C98.8002 103.655 100.078 104.065 101.386 104.341C100.723 105.174 100.163 106.082 99.7148 107.047C99.7087 107.072 99.7125 107.099 99.7263 107.121C99.7393 107.144 99.7615 107.16 99.7867 107.167C100.044 107.232 100.672 107.459 100.744 107.958C102.249 107.373 104.498 104.963 103.805 103.337C103.772 103.246 103.71 103.168 103.628 103.115C103.547 103.062 103.45 103.038 103.353 103.045C103.006 103.045 102.67 103.162 102.4 103.378C102.317 102.177 101.894 101.024 101.179 100.054C100.49 99.2363 99.5372 100.054 99.9459 101.225C99.5219 100.521 98.9701 99.9036 98.3189 99.4039C97.8841 99.0212 97.4556 99.2041 97.5275 99.6013C97.5903 100.185 97.7762 100.749 98.0732 101.254C97.7372 100.918 97.3599 100.624 96.9512 100.38C96.4277 100.018 96.0374 100.32 96.1859 100.742C96.4048 101.653 96.8885 102.48 97.5765 103.116Z" fill="#6153BD"/>
<path id="vector_73" d="M97.5765 103.116C98.8002 103.655 100.078 104.065 101.386 104.341C100.723 105.174 100.163 106.082 99.7148 107.047C99.7087 107.072 99.7125 107.099 99.7263 107.121C99.7393 107.144 99.7615 107.16 99.7867 107.167C100.044 107.232 100.672 107.459 100.744 107.958C102.249 107.373 104.498 104.963 103.805 103.337C103.772 103.246 103.71 103.168 103.628 103.115C103.547 103.062 103.45 103.038 103.353 103.045C103.006 103.045 102.67 103.162 102.4 103.378C102.317 102.177 101.894 101.024 101.179 100.054C100.49 99.2363 99.5372 100.054 99.9459 101.225C99.5219 100.521 98.9701 99.9036 98.3189 99.4039C97.8841 99.0212 97.4556 99.2041 97.5275 99.6013C97.5903 100.185 97.7762 100.749 98.0732 101.254C97.7372 100.918 97.3599 100.624 96.9512 100.38C96.4277 100.018 96.0374 100.32 96.1859 100.742C96.4048 101.653 96.8885 102.48 97.5765 103.116Z" stroke="#120071" stroke-width="0.769171" stroke-linecap="round" stroke-linejoin="round"/>
</g>
<g id="chat bubble 1">
<path id="vector_74" d="M112.45 4.43604C105.262 4.43589 98.3645 7.28011 93.2651 12.3477C88.1658 17.4152 85.2782 24.2945 85.2338 31.4833L73.4976 38.607L86.3091 39.2445C87.7188 44.1002 90.4533 48.4671 94.2057 51.8558C97.9589 55.2445 102.581 57.521 107.555 58.4301C112.528 59.3391 117.657 58.8449 122.366 57.0026C127.074 55.1604 131.176 52.043 134.213 48C137.249 43.957 139.099 39.1482 139.556 34.1127C140.013 29.0772 139.058 24.0141 136.798 19.4909C134.538 14.9677 131.064 11.1634 126.763 8.50423C122.462 5.84511 117.507 4.4364 112.45 4.43604Z" fill="#FECFC4"/>
<path id="vector_75" d="M112.45 4.43604C105.262 4.43589 98.3645 7.28011 93.2651 12.3477C88.1658 17.4152 85.2782 24.2945 85.2338 31.4833L73.4976 38.607L86.3091 39.2445C87.7188 44.1002 90.4533 48.4671 94.2057 51.8558C97.9589 55.2445 102.581 57.521 107.555 58.4301C112.528 59.3391 117.657 58.8449 122.366 57.0026C127.074 55.1604 131.176 52.043 134.213 48C137.249 43.957 139.099 39.1482 139.556 34.1127C140.013 29.0772 139.058 24.0141 136.798 19.4909C134.538 14.9677 131.064 11.1634 126.763 8.50423C122.462 5.84511 117.507 4.4364 112.45 4.43604Z" stroke="#120071" stroke-width="0.769171" stroke-linecap="round" stroke-linejoin="round"/>
<path id="vector_76" d="M99.7781 24.385H124.37" stroke="#120071" stroke-width="0.769171" stroke-linecap="round" stroke-linejoin="round"/>
<path id="vector_77" d="M99.7781 29.9993H124.37" stroke="#120071" stroke-width="0.769171" stroke-linecap="round" stroke-linejoin="round"/>
<path id="vector_78" d="M99.7781 35.6133H124.37" stroke="#120071" stroke-width="0.769171" stroke-linecap="round" stroke-linejoin="round"/>
<path id="vector_79" d="M99.7781 41.2268H124.37" stroke="#120071" stroke-width="0.769171" stroke-linecap="round" stroke-linejoin="round"/>
</g>
</g>
</g>
</svg>
